<svg xmlns="http://www.w3.org/2000/svg" xmlns:xlink="http://www.w3.org/1999/xlink" viewBox="0 0 512 512" width="512" height="512" preserveAspectRatio="xMidYMid meet" style="width: 100%; height: 100%; transform: translate3d(0px, 0px, 0px); content-visibility: visible;"><defs><clipPath id="__lottie_element_2"><rect width="512" height="512" x="0" y="0"></rect></clipPath><symbol id="__lottie_element_9"><g><g style="display: block;" transform="matrix(1,0,0,1,256,256)" opacity="1"><g opacity="1" transform="matrix(1,0,0,1,0,0)"><path fill="rgb(60,91,154)" fill-opacity="1" d=" M0,-131.6094970703125 C72.63528442382812,-131.6094970703125 131.6094970703125,-72.63528442382812 131.6094970703125,0 C131.6094970703125,72.63528442382812 72.63528442382812,131.6094970703125 0,131.6094970703125 C-72.63528442382812,131.6094970703125 -131.6094970703125,72.63528442382812 -131.6094970703125,0 C-131.6094970703125,-72.63528442382812 -72.63528442382812,-131.6094970703125 0,-131.6094970703125z"></path><path stroke-linecap="butt" stroke-linejoin="miter" fill-opacity="0" stroke-miterlimit="4" stroke="rgb(54,54,54)" stroke-opacity="1" stroke-width="0" d=" M0,-131.6094970703125 C72.63528442382812,-131.6094970703125 131.6094970703125,-72.63528442382812 131.6094970703125,0 C131.6094970703125,72.63528442382812 72.63528442382812,131.6094970703125 0,131.6094970703125 C-72.63528442382812,131.6094970703125 -131.6094970703125,72.63528442382812 -131.6094970703125,0 C-131.6094970703125,-72.63528442382812 -72.63528442382812,-131.6094970703125 0,-131.6094970703125z"></path></g></g></g></symbol><mask id="__lottie_element_9_1" mask-type="alpha"><use xlink:href="#__lottie_element_9"></use></mask></defs><g clip-path="url(#__lottie_element_2)"><g transform="matrix(-2.4162540435791016,-0.3395823836326599,0.3395823836326599,-2.4162540435791016,264,241)" opacity="1" style="display: none;"><g opacity="1" transform="matrix(1,0,0,1,0,0)"><path stroke-linecap="round" stroke-linejoin="miter" fill-opacity="0" stroke-miterlimit="4" stroke="rgb(203,29,35)" stroke-opacity="1" stroke-width="14" d=" M6.538000106811523,-17.676000595092773 C8.96500015258789,-17.143999099731445 11.149999618530273,-15.88599967956543 12.64799976348877,-13.769000053405762 C13.206000328063965,-12.980999946594238 15.470000267028809,-8.496999740600586 14.208999633789062,-5.960000038146973 C13.265000343322754,-4.060999870300293 11.062999725341797,-1.9559999704360962 8.894000053405762,-1.5369999408721924 C7.2829999923706055,-1.2259999513626099 4.373000144958496,-1.5729999542236328 3.4560000896453857,-3.503999948501587 C2.1510000228881836,-6.25 5.123000144958496,-7.889999866485596 6.392000198364258,-6.63100004196167"></path></g></g><g transform="matrix(1,0,0,1,256,256)" opacity="1" style="display: block;"><g opacity="1" transform="matrix(1,0,0,1,0,0)"><path stroke-linecap="butt" stroke-linejoin="miter" fill-opacity="0" stroke-miterlimit="4" stroke="rgb(203,29,35)" stroke-opacity="1" stroke-width="38" d=" M0,-131.6094970703125 C72.63528442382812,-131.6094970703125 131.6094970703125,-72.63528442382812 131.6094970703125,0 C131.6094970703125,72.63528442382812 72.63528442382812,131.6094970703125 0,131.6094970703125 C-72.63528442382812,131.6094970703125 -131.6094970703125,72.63528442382812 -131.6094970703125,0 C-131.6094970703125,-72.63528442382812 -72.63528442382812,-131.6094970703125 0,-131.6094970703125z"></path></g></g><g transform="matrix(1,0,0,1,256,256)" opacity="1" style="display: block;"><g opacity="1" transform="matrix(1,0,0,1,0,0)"><path fill="rgb(60,91,154)" fill-opacity="1" d=" M0,-131.6094970703125 C72.63528442382812,-131.6094970703125 131.6094970703125,-72.63528442382812 131.6094970703125,0 C131.6094970703125,72.63528442382812 72.63528442382812,131.6094970703125 0,131.6094970703125 C-72.63528442382812,131.6094970703125 -131.6094970703125,72.63528442382812 -131.6094970703125,0 C-131.6094970703125,-72.63528442382812 -72.63528442382812,-131.6094970703125 0,-131.6094970703125z"></path><path stroke-linecap="butt" stroke-linejoin="miter" fill-opacity="0" stroke-miterlimit="4" stroke="rgb(54,54,54)" stroke-opacity="1" stroke-width="0" d=" M0,-131.6094970703125 C72.63528442382812,-131.6094970703125 131.6094970703125,-72.63528442382812 131.6094970703125,0 C131.6094970703125,72.63528442382812 72.63528442382812,131.6094970703125 0,131.6094970703125 C-72.63528442382812,131.6094970703125 -131.6094970703125,72.63528442382812 -131.6094970703125,0 C-131.6094970703125,-72.63528442382812 -72.63528442382812,-131.6094970703125 0,-131.6094970703125z"></path></g></g><g transform="matrix(1,0,0,1,256,256)" opacity="1" style="display: block;"><g opacity="1" transform="matrix(1,0,0,1,0,0)"><path stroke-linecap="butt" stroke-linejoin="miter" fill-opacity="0" stroke-miterlimit="4" stroke="rgb(203,29,35)" stroke-opacity="1" stroke-width="38" d=" M0,-131.6094970703125 C72.63528442382812,-131.6094970703125 131.6094970703125,-72.63528442382812 131.6094970703125,0 C131.6094970703125,72.63528442382812 72.63528442382812,131.6094970703125 0,131.6094970703125 C-72.63528442382812,131.6094970703125 -131.6094970703125,72.63528442382812 -131.6094970703125,0 C-131.6094970703125,-72.63528442382812 -72.63528442382812,-131.6094970703125 0,-131.6094970703125z"></path></g></g><g mask="url(#__lottie_element_9_1)" style="display: block;"><g transform="matrix(0.6138200163841248,0,0,0.6138200163841248,121.18852233886719,154.21832275390625)" opacity="1"><g opacity="1" transform="matrix(2.222100019454956,0,0,2.658639907836914,292.85699462890625,170.9029998779297)"><path fill="rgb(203,29,35)" fill-opacity="1" d=" M-292.60699462890625,170.6529998779297 C-292.60699462890625,170.6529998779297 292.60699462890625,170.6529998779297 292.60699462890625,170.6529998779297 C292.60699462890625,170.6529998779297 292.60699462890625,-170.6529998779297 292.60699462890625,-170.6529998779297 C292.60699462890625,-170.6529998779297 -292.60699462890625,-170.6529998779297 -292.60699462890625,-170.6529998779297 C-292.60699462890625,-170.6529998779297 -292.60699462890625,170.6529998779297 -292.60699462890625,170.6529998779297z"></path></g><g opacity="1" transform="matrix(1,0,0,1,85.5780029296875,79.15799713134766)"><path fill="rgb(247,222,41)" fill-opacity="1" d=" M-29.048999786376953,44.64699935913086 C-29.048999786376953,44.64699935913086 -18.066999435424805,10.59000015258789 -18.066999435424805,10.59000015258789 C-18.066999435424805,10.59000015258789 -46.92900085449219,-10.592000007629395 -46.92900085449219,-10.592000007629395 C-46.92900085449219,-10.592000007629395 -11.152999877929688,-10.65999984741211 -11.152999877929688,-10.65999984741211 C-11.152999877929688,-10.65999984741211 0.017999999225139618,-44.64699935913086 0.017999999225139618,-44.64699935913086 C0.017999999225139618,-44.64699935913086 11.13700008392334,-10.65999984741211 11.13700008392334,-10.65999984741211 C11.13700008392334,-10.65999984741211 46.92900085449219,-10.52400016784668 46.92900085449219,-10.52400016784668 C46.92900085449219,-10.52400016784668 18.016000747680664,10.59000015258789 18.016000747680664,10.59000015258789 C18.016000747680664,10.59000015258789 28.947999954223633,44.64699935913086 28.947999954223633,44.64699935913086 C28.947999954223633,44.64699935913086 -0.017999999225139618,23.599000930786133 -0.017999999225139618,23.599000930786133 C-0.017999999225139618,23.599000930786133 -29.048999786376953,44.64699935913086 -29.048999786376953,44.64699935913086z"></path></g><g opacity="1" transform="matrix(1,0,0,1,171.4320068359375,154.0800018310547)"><path fill="rgb(247,222,41)" fill-opacity="1" d=" M-15.121000289916992,-11.88700008392334 C-15.121000289916992,-11.88700008392334 -3.013000011444092,-6.980999946594238 -3.013000011444092,-6.980999946594238 C-3.013000011444092,-6.980999946594238 5.38100004196167,-16.993000030517578 5.38100004196167,-16.993000030517578 C5.38100004196167,-16.993000030517578 4.479000091552734,-3.9839999675750732 4.479000091552734,-3.9839999675750732 C4.479000091552734,-3.9839999675750732 16.56800079345703,0.9190000295639038 16.56800079345703,0.9190000295639038 C16.56800079345703,0.9190000295639038 3.9159998893737793,4.120999813079834 3.9159998893737793,4.120999813079834 C3.9159998893737793,4.120999813079834 2.9800000190734863,16.993000030517578 2.9800000190734863,16.993000030517578 C2.9800000190734863,16.993000030517578 -3.9489998817443848,6.0269999504089355 -3.9489998817443848,6.0269999504089355 C-3.9489998817443848,6.0269999504089355 -16.56800079345703,9.093999862670898 -16.56800079345703,9.093999862670898 C-16.56800079345703,9.093999862670898 -8.241000175476074,-0.8500000238418579 -8.241000175476074,-0.8500000238418579 C-8.241000175476074,-0.8500000238418579 -15.121000289916992,-11.88700008392334 -15.121000289916992,-11.88700008392334z"></path></g><g opacity="1" transform="matrix(1,0,0,1,204.90899658203125,69.0770034790039)"><path fill="rgb(247,222,41)" fill-opacity="1" d=" M16.823999404907227,7.660999774932861 C16.823999404907227,7.660999774932861 3.9839999675750732,5.413000106811523 3.9839999675750732,5.413000106811523 C3.9839999675750732,5.413000106811523 -2.1630001068115234,16.924999237060547 -2.1630001068115234,16.924999237060547 C-2.1630001068115234,16.924999237060547 -3.9679999351501465,4.052999973297119 -3.9679999351501465,4.052999973297119 C-3.9679999351501465,4.052999973297119 -16.823999404907227,1.6690000295639038 -16.823999404907227,1.6690000295639038 C-16.823999404907227,1.6690000295639038 -5.125999927520752,-3.984999895095825 -5.125999927520752,-3.984999895095825 C-5.125999927520752,-3.984999895095825 -6.8979997634887695,-16.924999237060547 -6.8979997634887695,-16.924999237060547 C-6.8979997634887695,-16.924999237060547 2.180000066757202,-7.5960001945495605 2.180000066757202,-7.5960001945495605 C2.180000066757202,-7.5960001945495605 13.878000259399414,-13.248000144958496 13.878000259399414,-13.248000144958496 C13.878000259399414,-13.248000144958496 7.764999866485596,-1.7359999418258667 7.764999866485596,-1.7359999418258667 C7.764999866485596,-1.7359999418258667 16.823999404907227,7.660999774932861 16.823999404907227,7.660999774932861z"></path></g><g opacity="1" transform="matrix(1,0,0,1,205.0449981689453,118.7979965209961)"><path fill="rgb(247,222,41)" fill-opacity="1" d=" M-10.539999961853027,16.243999481201172 C-10.539999961853027,16.243999481201172 -6.572999954223633,3.8480000495910645 -6.572999954223633,3.8480000495910645 C-6.572999954223633,3.8480000495910645 -17.07900047302246,-3.8499999046325684 -17.07900047302246,-3.8499999046325684 C-17.07900047302246,-3.8499999046325684 -4.035999774932861,-3.8499999046325684 -4.035999774932861,-3.8499999046325684 C-4.035999774932861,-3.8499999046325684 -0.017000000923871994,-16.243999481201172 -0.017000000923871994,-16.243999481201172 C-0.017000000923871994,-16.243999481201172 4.034999847412109,-3.8499999046325684 4.034999847412109,-3.8499999046325684 C4.034999847412109,-3.8499999046325684 17.07900047302246,-3.8499999046325684 17.07900047302246,-3.8499999046325684 C17.07900047302246,-3.8499999046325684 6.572000026702881,3.8480000495910645 6.572000026702881,3.8480000495910645 C6.572000026702881,3.8480000495910645 10.52299976348877,16.243999481201172 10.52299976348877,16.243999481201172 C10.52299976348877,16.243999481201172 -0.017000000923871994,8.616999626159668 -0.017000000923871994,8.616999626159668 C-0.017000000923871994,8.616999626159668 -10.539999961853027,16.243999481201172 -10.539999961853027,16.243999481201172z"></path></g><g opacity="1" transform="matrix(1,0,0,1,171.15199279785156,34.849998474121094)"><path fill="rgb(247,222,41)" fill-opacity="1" d=" M-14.177000045776367,-12.940999984741211 C-14.177000045776367,-12.940999984741211 -2.375999927520752,-7.422999858856201 -2.375999927520752,-7.422999858856201 C-2.375999927520752,-7.422999858856201 6.5289998054504395,-16.959999084472656 6.5289998054504395,-16.959999084472656 C6.5289998054504395,-16.959999084472656 4.980999946594238,-4.01800012588501 4.980999946594238,-4.01800012588501 C4.980999946594238,-4.01800012588501 16.746999740600586,1.565999984741211 16.746999740600586,1.565999984741211 C16.746999740600586,1.565999984741211 3.992000102996826,4.020999908447266 3.992000102996826,4.020999908447266 C3.992000102996826,4.020999908447266 2.374000072479248,16.959999084472656 2.374000072479248,16.959999084472656 C2.374000072479248,16.959999084472656 -3.9769999980926514,5.585000038146973 -3.9769999980926514,5.585000038146973 C-3.9769999980926514,5.585000038146973 -16.746999740600586,7.968999862670898 -16.746999740600586,7.968999862670898 C-16.746999740600586,7.968999862670898 -7.89300012588501,-1.565999984741211 -7.89300012588501,-1.565999984741211 C-7.89300012588501,-1.565999984741211 -14.177000045776367,-12.940999984741211 -14.177000045776367,-12.940999984741211z"></path></g></g></g></g></svg>