<svg xmlns="http://www.w3.org/2000/svg" xmlns:xlink="http://www.w3.org/1999/xlink" viewBox="0 0 1000 1000" width="1000" height="1000" preserveAspectRatio="xMidYMid meet" style="width: 100%; height: 100%; transform: translate3d(0px, 0px, 0px); content-visibility: visible;"><defs><clipPath id="__lottie_element_2"><rect width="1000" height="1000" x="0" y="0"></rect></clipPath><clipPath id="__lottie_element_51"><path fill="#ffffff" clip-rule="nonzero" d=" M355.2590026855469,-50.005001068115234 C355.2590026855469,-50.005001068115234 -45.24100112915039,-50.005001068115234 -45.24100112915039,-50.005001068115234 C-45.24100112915039,-50.005001068115234 -45.24100112915039,15.494999885559082 -45.24100112915039,15.494999885559082 C-45.24100112915039,15.494999885559082 355.2590026855469,15.494999885559082 355.2590026855469,15.494999885559082 C355.2590026855469,15.494999885559082 355.2590026855469,-50.005001068115234 355.2590026855469,-50.005001068115234" fill-opacity="1"></path></clipPath><clipPath id="__lottie_element_54"><path fill="#ffffff" clip-rule="nonzero" d=" M367.0719909667969,-80.96499633789062 C367.0719909667969,-80.96499633789062 -71.9280014038086,-80.96499633789062 -71.9280014038086,-80.96499633789062 C-71.9280014038086,-80.96499633789062 -71.9280014038086,15.03499984741211 -71.9280014038086,15.03499984741211 C-71.9280014038086,15.03499984741211 367.0719909667969,15.03499984741211 367.0719909667969,15.03499984741211 C367.0719909667969,15.03499984741211 367.0719909667969,-80.96499633789062 367.0719909667969,-80.96499633789062" fill-opacity="1"></path></clipPath><clipPath id="__lottie_element_99"><path fill="#ffffff" clip-rule="nonzero" d=" M630.5050048828125,-3.950000047683716 C630.5050048828125,-3.950000047683716 -71.49500274658203,-3.950000047683716 -71.49500274658203,-3.950000047683716 C-71.49500274658203,-3.950000047683716 -71.49500274658203,121.05000305175781 -71.49500274658203,121.05000305175781 C-71.49500274658203,121.05000305175781 630.5050048828125,121.05000305175781 630.5050048828125,121.05000305175781 C630.5050048828125,121.05000305175781 630.5050048828125,-3.950000047683716 630.5050048828125,-3.950000047683716" fill-opacity="1"></path></clipPath><symbol id="__lottie_element_104"><g><g transform="matrix(1.0956462621688843,0.004247358534485102,-0.004247358534485102,1.0956462621688843,76.53299713134766,796.8012084960938)" opacity="1" style="display: block;"><g opacity="1" transform="matrix(1,0,0,1,21.371999740600586,55.07899856567383)"><path fill="rgb(122,122,124)" fill-opacity="1" d=" M21.121999740600586,54.827999114990234 C21.121999740600586,54.827999114990234 -21.121999740600586,54.827999114990234 -21.121999740600586,54.827999114990234 C-21.121999740600586,54.827999114990234 -21.121999740600586,-54.827999114990234 -21.121999740600586,-54.827999114990234 C-21.121999740600586,-54.827999114990234 21.121999740600586,-44.042999267578125 21.121999740600586,-44.042999267578125 C21.121999740600586,-44.042999267578125 21.121999740600586,54.827999114990234 21.121999740600586,54.827999114990234z"></path></g></g></g></symbol><symbol id="__lottie_element_110"><g><g transform="matrix(1.0956462621688843,0.004247358534485102,-0.004247358534485102,1.0956462621688843,884.084228515625,794.7855834960938)" opacity="1" style="display: block;"><g opacity="1" transform="matrix(1,0,0,1.2466599941253662,21.371999740600586,44.426998138427734)"><path fill="rgb(122,122,124)" fill-opacity="1" d=" M-21.121999740600586,56.176998138427734 C-21.121999740600586,56.176998138427734 21.121999740600586,56.176998138427734 21.121999740600586,56.176998138427734 C21.121999740600586,56.176998138427734 21.121999740600586,-56.176998138427734 21.121999740600586,-56.176998138427734 C21.121999740600586,-56.176998138427734 -21.121999740600586,-43.59299850463867 -21.121999740600586,-43.59299850463867 C-21.121999740600586,-43.59299850463867 -21.121999740600586,56.176998138427734 -21.121999740600586,56.176998138427734z"></path></g></g></g></symbol><mask id="__lottie_element_110_1" mask-type="alpha"><use xlink:href="#__lottie_element_110"></use></mask><mask id="__lottie_element_104_1" mask-type="alpha"><use xlink:href="#__lottie_element_104"></use></mask></defs><g clip-path="url(#__lottie_element_2)"><g transform="matrix(1.0956462621688843,0.004247358534485102,-0.004247358534485102,1.0956462621688843,122.78340148925781,805.8446044921875)" opacity="1" style="display: block;"><g opacity="1" transform="matrix(1,0,0,1,347.64599609375,40.24700164794922)"><path fill="rgb(247,219,172)" fill-opacity="1" d=" M347.39599609375,39.99700164794922 C347.39599609375,39.99700164794922 -347.39599609375,39.99700164794922 -347.39599609375,39.99700164794922 C-347.39599609375,39.99700164794922 -347.39599609375,-39.99700164794922 -347.39599609375,-39.99700164794922 C-347.39599609375,-39.99700164794922 347.39599609375,-39.99700164794922 347.39599609375,-39.99700164794922 C347.39599609375,-39.99700164794922 347.39599609375,39.99700164794922 347.39599609375,39.99700164794922z"></path></g></g><g transform="matrix(1.0956462621688843,0.004247358534485102,-0.004247358534485102,1.0956462621688843,122.64921569824219,836.2117309570312)" opacity="1" style="display: block;"><g opacity="1" transform="matrix(1,0,0,1,347.6610107421875,37.249000549316406)"><path fill="rgb(128,129,132)" fill-opacity="1" d=" M347.4110107421875,36.70399856567383 C347.4110107421875,36.70399856567383 -347.3800048828125,36.999000549316406 -347.3800048828125,36.999000549316406 C-347.3800048828125,36.999000549316406 -347.4110107421875,-36.70500183105469 -347.4110107421875,-36.70500183105469 C-347.4110107421875,-36.70500183105469 347.3800048828125,-36.999000549316406 347.3800048828125,-36.999000549316406 C347.3800048828125,-36.999000549316406 347.4110107421875,36.70399856567383 347.4110107421875,36.70399856567383z"></path></g></g><g transform="matrix(1.0956462621688843,0.004247358534485102,-0.004247358534485102,1.0956462621688843,160.6703338623047,685.8443603515625)" opacity="1" style="display: block;"><g opacity="1" transform="matrix(1,0,0,1,313.0419921875,55.97700119018555)"><path fill="rgb(24,85,113)" fill-opacity="1" d=" M312.7919921875,55.72700119018555 C312.7919921875,55.72700119018555 -312.7919921875,55.72700119018555 -312.7919921875,55.72700119018555 C-312.7919921875,55.72700119018555 -312.7919921875,-55.72700119018555 -312.7919921875,-55.72700119018555 C-312.7919921875,-55.72700119018555 312.7919921875,-55.72700119018555 312.7919921875,-55.72700119018555 C312.7919921875,-55.72700119018555 312.7919921875,55.72700119018555 312.7919921875,55.72700119018555z"></path></g></g><g transform="matrix(1.0956462621688843,0.004247358534485102,-0.004247358534485102,1.0956462621688843,160.51380920410156,726.2200317382812)" opacity="1" style="display: block;"><g opacity="1" transform="matrix(1,0,0,1,313.0419921875,37.55099868774414)"><path fill="rgb(238,77,73)" fill-opacity="1" d=" M312.7919921875,37.30099868774414 C312.7919921875,37.30099868774414 -312.7919921875,37.30099868774414 -312.7919921875,37.30099868774414 C-312.7919921875,37.30099868774414 -312.7919921875,-37.30099868774414 -312.7919921875,-37.30099868774414 C-312.7919921875,-37.30099868774414 312.7919921875,-37.30099868774414 312.7919921875,-37.30099868774414 C312.7919921875,-37.30099868774414 312.7919921875,37.30099868774414 312.7919921875,37.30099868774414z"></path></g></g><g transform="matrix(1.0956462621688843,0.004247358534485102,-0.004247358534485102,1.0956462621688843,160.10011291503906,706.03076171875)" opacity="1" style="display: block;"><g opacity="1" transform="matrix(1,0,0,1,313.4909973144531,3.8450000286102295)"><path fill="rgb(255,204,3)" fill-opacity="1" d=" M313.2409973144531,3.5950000286102295 C313.2409973144531,3.5950000286102295 -313.2409973144531,3.5950000286102295 -313.2409973144531,3.5950000286102295 C-313.2409973144531,3.5950000286102295 -313.2409973144531,-3.5950000286102295 -313.2409973144531,-3.5950000286102295 C-313.2409973144531,-3.5950000286102295 313.2409973144531,-3.5950000286102295 313.2409973144531,-3.5950000286102295 C313.2409973144531,-3.5950000286102295 313.2409973144531,3.5950000286102295 313.2409973144531,3.5950000286102295z"></path></g></g><g transform="matrix(1.0956462621688843,0.004247358534485102,-0.004247358534485102,1.0956462621688843,580.9423828125,748.5302124023438)" opacity="1" style="display: block;"><g opacity="1" transform="matrix(1,0,0,1,13.282999992370605,27.21500015258789)"><path fill="rgb(158,40,40)" fill-opacity="1" d=" M13.032999992370605,26.96500015258789 C13.032999992370605,26.96500015258789 -13.032999992370605,26.96500015258789 -13.032999992370605,26.96500015258789 C-13.032999992370605,26.96500015258789 -13.032999992370605,-26.96500015258789 -13.032999992370605,-26.96500015258789 C-13.032999992370605,-26.96500015258789 13.032999992370605,-26.96500015258789 13.032999992370605,-26.96500015258789 C13.032999992370605,-26.96500015258789 13.032999992370605,26.96500015258789 13.032999992370605,26.96500015258789z"></path></g><g opacity="1" transform="matrix(1,0,0,1,42.04600143432617,27.21500015258789)"><path fill="rgb(158,40,40)" fill-opacity="1" d=" M13.032999992370605,26.96500015258789 C13.032999992370605,26.96500015258789 -13.032999992370605,26.96500015258789 -13.032999992370605,26.96500015258789 C-13.032999992370605,26.96500015258789 -13.032999992370605,-26.96500015258789 -13.032999992370605,-26.96500015258789 C-13.032999992370605,-26.96500015258789 13.032999992370605,-26.96500015258789 13.032999992370605,-26.96500015258789 C13.032999992370605,-26.96500015258789 13.032999992370605,26.96500015258789 13.032999992370605,26.96500015258789z"></path></g></g><g transform="matrix(1.0956462621688843,0.004247358534485102,-0.004247358534485102,1.0956462621688843,654.3096923828125,748.8145751953125)" opacity="1" style="display: block;"><g opacity="1" transform="matrix(1,0,0,1,13.282999992370605,27.21500015258789)"><path fill="rgb(158,40,40)" fill-opacity="1" d=" M13.032999992370605,26.96500015258789 C13.032999992370605,26.96500015258789 -13.032999992370605,26.96500015258789 -13.032999992370605,26.96500015258789 C-13.032999992370605,26.96500015258789 -13.032999992370605,-26.96500015258789 -13.032999992370605,-26.96500015258789 C-13.032999992370605,-26.96500015258789 13.032999992370605,-26.96500015258789 13.032999992370605,-26.96500015258789 C13.032999992370605,-26.96500015258789 13.032999992370605,26.96500015258789 13.032999992370605,26.96500015258789z"></path></g><g opacity="1" transform="matrix(1,0,0,1,42.04499816894531,27.21500015258789)"><path fill="rgb(158,40,40)" fill-opacity="1" d=" M13.032999992370605,26.96500015258789 C13.032999992370605,26.96500015258789 -13.032999992370605,26.96500015258789 -13.032999992370605,26.96500015258789 C-13.032999992370605,26.96500015258789 -13.032999992370605,-26.96500015258789 -13.032999992370605,-26.96500015258789 C-13.032999992370605,-26.96500015258789 13.032999992370605,-26.96500015258789 13.032999992370605,-26.96500015258789 C13.032999992370605,-26.96500015258789 13.032999992370605,26.96500015258789 13.032999992370605,26.96500015258789z"></path></g></g><g transform="matrix(1.0956462621688843,0.004247358534485102,-0.004247358534485102,1.0956462621688843,729.6463012695312,749.1066284179688)" opacity="1" style="display: block;"><g opacity="1" transform="matrix(1,0,0,1,13.282999992370605,27.21500015258789)"><path fill="rgb(158,40,40)" fill-opacity="1" d=" M13.032999992370605,26.96500015258789 C13.032999992370605,26.96500015258789 -13.032999992370605,26.96500015258789 -13.032999992370605,26.96500015258789 C-13.032999992370605,26.96500015258789 -13.032999992370605,-26.96500015258789 -13.032999992370605,-26.96500015258789 C-13.032999992370605,-26.96500015258789 13.032999992370605,-26.96500015258789 13.032999992370605,-26.96500015258789 C13.032999992370605,-26.96500015258789 13.032999992370605,26.96500015258789 13.032999992370605,26.96500015258789z"></path></g><g opacity="1" transform="matrix(1,0,0,1,42.04600143432617,27.21500015258789)"><path fill="rgb(158,40,40)" fill-opacity="1" d=" M13.032999992370605,26.96500015258789 C13.032999992370605,26.96500015258789 -13.032999992370605,26.96500015258789 -13.032999992370605,26.96500015258789 C-13.032999992370605,26.96500015258789 -13.032999992370605,-26.96500015258789 -13.032999992370605,-26.96500015258789 C-13.032999992370605,-26.96500015258789 13.032999992370605,-26.96500015258789 13.032999992370605,-26.96500015258789 C13.032999992370605,-26.96500015258789 13.032999992370605,26.96500015258789 13.032999992370605,26.96500015258789z"></path></g></g><g transform="matrix(1.0956462621688843,0.004247358534485102,-0.004247358534485102,1.0956462621688843,371.1802673339844,747.717041015625)" opacity="1" style="display: block;"><g opacity="1" transform="matrix(1,0,0,1,13.282999992370605,27.21500015258789)"><path fill="rgb(158,40,40)" fill-opacity="1" d=" M13.032999992370605,26.96500015258789 C13.032999992370605,26.96500015258789 -13.032999992370605,26.96500015258789 -13.032999992370605,26.96500015258789 C-13.032999992370605,26.96500015258789 -13.032999992370605,-26.96500015258789 -13.032999992370605,-26.96500015258789 C-13.032999992370605,-26.96500015258789 13.032999992370605,-26.96500015258789 13.032999992370605,-26.96500015258789 C13.032999992370605,-26.96500015258789 13.032999992370605,26.96500015258789 13.032999992370605,26.96500015258789z"></path></g><g opacity="1" transform="matrix(1,0,0,1,42.04600143432617,27.21500015258789)"><path fill="rgb(158,40,40)" fill-opacity="1" d=" M13.032999992370605,26.96500015258789 C13.032999992370605,26.96500015258789 -13.032999992370605,26.96500015258789 -13.032999992370605,26.96500015258789 C-13.032999992370605,26.96500015258789 -13.032999992370605,-26.96500015258789 -13.032999992370605,-26.96500015258789 C-13.032999992370605,-26.96500015258789 13.032999992370605,-26.96500015258789 13.032999992370605,-26.96500015258789 C13.032999992370605,-26.96500015258789 13.032999992370605,26.96500015258789 13.032999992370605,26.96500015258789z"></path></g></g><g transform="matrix(1.0956462621688843,0.004247358534485102,-0.004247358534485102,1.0956462621688843,295.8436279296875,747.4249877929688)" opacity="1" style="display: block;"><g opacity="1" transform="matrix(1,0,0,1,13.282999992370605,27.21500015258789)"><path fill="rgb(158,40,40)" fill-opacity="1" d=" M13.032999992370605,26.96500015258789 C13.032999992370605,26.96500015258789 -13.032999992370605,26.96500015258789 -13.032999992370605,26.96500015258789 C-13.032999992370605,26.96500015258789 -13.032999992370605,-26.96500015258789 -13.032999992370605,-26.96500015258789 C-13.032999992370605,-26.96500015258789 13.032999992370605,-26.96500015258789 13.032999992370605,-26.96500015258789 C13.032999992370605,-26.96500015258789 13.032999992370605,26.96500015258789 13.032999992370605,26.96500015258789z"></path></g><g opacity="1" transform="matrix(1,0,0,1,42.04600143432617,27.21500015258789)"><path fill="rgb(158,40,40)" fill-opacity="1" d=" M13.032999992370605,26.96500015258789 C13.032999992370605,26.96500015258789 -13.032999992370605,26.96500015258789 -13.032999992370605,26.96500015258789 C-13.032999992370605,26.96500015258789 -13.032999992370605,-26.96500015258789 -13.032999992370605,-26.96500015258789 C-13.032999992370605,-26.96500015258789 13.032999992370605,-26.96500015258789 13.032999992370605,-26.96500015258789 C13.032999992370605,-26.96500015258789 13.032999992370605,26.96500015258789 13.032999992370605,26.96500015258789z"></path></g></g><g transform="matrix(1.0956462621688843,0.004247358534485102,-0.004247358534485102,1.0956462621688843,222.4774169921875,747.1405639648438)" opacity="1" style="display: block;"><g opacity="1" transform="matrix(1,0,0,1,13.282999992370605,27.21500015258789)"><path fill="rgb(158,40,40)" fill-opacity="1" d=" M13.032999992370605,26.96500015258789 C13.032999992370605,26.96500015258789 -13.032999992370605,26.96500015258789 -13.032999992370605,26.96500015258789 C-13.032999992370605,26.96500015258789 -13.032999992370605,-26.96500015258789 -13.032999992370605,-26.96500015258789 C-13.032999992370605,-26.96500015258789 13.032999992370605,-26.96500015258789 13.032999992370605,-26.96500015258789 C13.032999992370605,-26.96500015258789 13.032999992370605,26.96500015258789 13.032999992370605,26.96500015258789z"></path></g><g opacity="1" transform="matrix(1,0,0,1,42.04499816894531,27.21500015258789)"><path fill="rgb(158,40,40)" fill-opacity="1" d=" M13.032999992370605,26.96500015258789 C13.032999992370605,26.96500015258789 -13.032999992370605,26.96500015258789 -13.032999992370605,26.96500015258789 C-13.032999992370605,26.96500015258789 -13.032999992370605,-26.96500015258789 -13.032999992370605,-26.96500015258789 C-13.032999992370605,-26.96500015258789 13.032999992370605,-26.96500015258789 13.032999992370605,-26.96500015258789 C13.032999992370605,-26.96500015258789 13.032999992370605,26.96500015258789 13.032999992370605,26.96500015258789z"></path></g></g><g transform="matrix(1.0956462621688843,0.004247358534485102,-0.004247358534485102,1.0956462621688843,486.64532470703125,685.13818359375)" opacity="1" style="display: block;"><g opacity="1" transform="matrix(1,0,0,1,18.226999282836914,22.72100067138672)"><path fill="rgb(246,202,46)" fill-opacity="1" d=" M9.279999732971191,22.469999313354492 C9.279999732971191,22.469999313354492 -9.279999732971191,22.469999313354492 -9.279999732971191,22.469999313354492 C-14.083000183105469,22.469999313354492 -17.976999282836914,18.575000762939453 -17.976999282836914,13.772000312805176 C-17.976999282836914,13.772000312805176 -17.976999282836914,-16.576000213623047 -17.976999282836914,-16.576000213623047 C-17.976999282836914,-19.832000732421875 -15.336999893188477,-22.469999313354492 -12.081999778747559,-22.469999313354492 C-12.081999778747559,-22.469999313354492 12.081000328063965,-22.469999313354492 12.081000328063965,-22.469999313354492 C15.336999893188477,-22.469999313354492 17.976999282836914,-19.832000732421875 17.976999282836914,-16.576000213623047 C17.976999282836914,-16.576000213623047 17.976999282836914,13.772000312805176 17.976999282836914,13.772000312805176 C17.976999282836914,18.575000762939453 14.083000183105469,22.469999313354492 9.279999732971191,22.469999313354492z"></path></g></g><g transform="matrix(1.0956462621688843,0.004247358534485102,-0.004247358534485102,1.0956462621688843,76.54039764404297,794.7736206054688)" opacity="1" style="display: block;"><g opacity="1" transform="matrix(1,0,0,1,38.60599899291992,6.567999839782715)"><path fill="rgb(196,160,116)" fill-opacity="1" d=" M-38.35599899291992,-4.4679999351501465 C-38.35599899291992,-4.4679999351501465 38.35599899291992,-6.317999839782715 38.35599899291992,-6.317999839782715 C38.35599899291992,-6.317999839782715 38.04399871826172,5.420000076293945 38.04399871826172,5.420000076293945 C38.04399871826172,5.420000076293945 3.8889999389648438,6.317999839782715 3.8889999389648438,6.317999839782715 C3.8889999389648438,6.317999839782715 -38.35599899291992,-4.4679999351501465 -38.35599899291992,-4.4679999351501465z"></path></g></g><g transform="matrix(1.0956462621688843,0.004247358534485102,-0.004247358534485102,1.0956462621688843,845.331298828125,795.78466796875)" opacity="1" style="display: block;"><g opacity="1" transform="matrix(1,0,0,1,39.05500030517578,7.01800012588501)"><path fill="rgb(196,160,116)" fill-opacity="1" d=" M38.80500030517578,-5.816999912261963 C38.80500030517578,-5.816999912261963 -38.80500030517578,-6.76800012588501 -38.80500030517578,-6.76800012588501 C-38.80500030517578,-6.76800012588501 -38.49399948120117,4.968999862670898 -38.49399948120117,4.968999862670898 C-38.49399948120117,4.968999862670898 -3.440000057220459,6.76800012588501 -3.440000057220459,6.76800012588501 C-3.440000057220459,6.76800012588501 38.80500030517578,-5.816999912261963 38.80500030517578,-5.816999912261963z"></path></g></g><g transform="matrix(1.0956462621688843,0.004247358534485102,-0.004247358534485102,1.0956462621688843,490.58526611328125,685.1537475585938)" opacity="1" style="display: block;"><g opacity="1" transform="matrix(1,0,0,1,14.630999565124512,21.371999740600586)"><path fill="rgb(11,43,99)" fill-opacity="1" d=" M5.684000015258789,21.121999740600586 C5.684000015258789,21.121999740600586 -5.683000087738037,21.121999740600586 -5.683000087738037,21.121999740600586 C-10.487000465393066,21.121999740600586 -14.380999565124512,17.22800064086914 -14.380999565124512,12.425000190734863 C-14.380999565124512,12.425000190734863 -14.380999565124512,-15.22700023651123 -14.380999565124512,-15.22700023651123 C-14.380999565124512,-18.48200035095215 -11.741000175476074,-21.121999740600586 -8.484999656677246,-21.121999740600586 C-8.484999656677246,-21.121999740600586 8.487000465393066,-21.121999740600586 8.487000465393066,-21.121999740600586 C11.743000030517578,-21.121999740600586 14.380999565124512,-18.48200035095215 14.380999565124512,-15.22700023651123 C14.380999565124512,-15.22700023651123 14.380999565124512,12.425000190734863 14.380999565124512,12.425000190734863 C14.380999565124512,17.22800064086914 10.48799991607666,21.121999740600586 5.684000015258789,21.121999740600586z"></path></g></g><g clip-path="url(#__lottie_element_51)" transform="matrix(1.0956462621688843,0.004247358534485102,-0.004247358534485102,1.0956462621688843,560.5739135742188,794.7396850585938)" opacity="1" style="display: block;"><g opacity="1" transform="matrix(1,0,0,1,155.7469940185547,6.541999816894531)"><path fill="rgb(247,219,172)" fill-opacity="1" d=" M155.4969940185547,1.3480000495910645 C155.4969940185547,1.3480000495910645 -155.4969940185547,1.3480000495910645 -155.4969940185547,1.3480000495910645 C-155.4969940185547,1.3480000495910645 -155.4969940185547,-1.3480000495910645 -155.4969940185547,-1.3480000495910645 C-155.4969940185547,-1.3480000495910645 155.4969940185547,-1.3480000495910645 155.4969940185547,-1.3480000495910645 C155.4969940185547,-1.3480000495910645 155.4969940185547,1.3480000495910645 155.4969940185547,1.3480000495910645z"></path></g><g opacity="1" transform="matrix(1,0,0,1,3.8459999561309814,7.889999866485596)"><path fill="rgb(247,219,172)" fill-opacity="1" d=" M2.246999979019165,6.741000175476074 C2.246999979019165,6.741000175476074 -2.246999979019165,6.741000175476074 -2.246999979019165,6.741000175476074 C-2.246999979019165,6.741000175476074 -2.246999979019165,-6.741000175476074 -2.246999979019165,-6.741000175476074 C-2.246999979019165,-6.741000175476074 2.246999979019165,-6.741000175476074 2.246999979019165,-6.741000175476074 C2.246999979019165,-6.741000175476074 2.246999979019165,6.741000175476074 2.246999979019165,6.741000175476074z"></path></g><g opacity="1" transform="matrix(1,0,0,1,25.41699981689453,6.991000175476074)"><path fill="rgb(247,219,172)" fill-opacity="1" d=" M2.246999979019165,6.741000175476074 C2.246999979019165,6.741000175476074 -2.246999979019165,6.741000175476074 -2.246999979019165,6.741000175476074 C-2.246999979019165,6.741000175476074 -2.246999979019165,-6.741000175476074 -2.246999979019165,-6.741000175476074 C-2.246999979019165,-6.741000175476074 2.246999979019165,-6.741000175476074 2.246999979019165,-6.741000175476074 C2.246999979019165,-6.741000175476074 2.246999979019165,6.741000175476074 2.246999979019165,6.741000175476074z"></path></g><g opacity="1" transform="matrix(1,0,0,1,47.88800048828125,6.991000175476074)"><path fill="rgb(247,219,172)" fill-opacity="1" d=" M2.246999979019165,6.741000175476074 C2.246999979019165,6.741000175476074 -2.246999979019165,6.741000175476074 -2.246999979019165,6.741000175476074 C-2.246999979019165,6.741000175476074 -2.246999979019165,-6.741000175476074 -2.246999979019165,-6.741000175476074 C-2.246999979019165,-6.741000175476074 2.246999979019165,-6.741000175476074 2.246999979019165,-6.741000175476074 C2.246999979019165,-6.741000175476074 2.246999979019165,6.741000175476074 2.246999979019165,6.741000175476074z"></path></g><g opacity="1" transform="matrix(1,0,0,1,70.35900115966797,6.991000175476074)"><path fill="rgb(247,219,172)" fill-opacity="1" d=" M2.246999979019165,6.741000175476074 C2.246999979019165,6.741000175476074 -2.246999979019165,6.741000175476074 -2.246999979019165,6.741000175476074 C-2.246999979019165,6.741000175476074 -2.246999979019165,-6.741000175476074 -2.246999979019165,-6.741000175476074 C-2.246999979019165,-6.741000175476074 2.246999979019165,-6.741000175476074 2.246999979019165,-6.741000175476074 C2.246999979019165,-6.741000175476074 2.246999979019165,6.741000175476074 2.246999979019165,6.741000175476074z"></path></g><g opacity="1" transform="matrix(1,0,0,1,92.8290023803711,6.991000175476074)"><path fill="rgb(247,219,172)" fill-opacity="1" d=" M2.246999979019165,6.741000175476074 C2.246999979019165,6.741000175476074 -2.246999979019165,6.741000175476074 -2.246999979019165,6.741000175476074 C-2.246999979019165,6.741000175476074 -2.246999979019165,-6.741000175476074 -2.246999979019165,-6.741000175476074 C-2.246999979019165,-6.741000175476074 2.246999979019165,-6.741000175476074 2.246999979019165,-6.741000175476074 C2.246999979019165,-6.741000175476074 2.246999979019165,6.741000175476074 2.246999979019165,6.741000175476074z"></path></g><g opacity="1" transform="matrix(1,0,0,1,115.30000305175781,6.991000175476074)"><path fill="rgb(247,219,172)" fill-opacity="1" d=" M2.246999979019165,6.741000175476074 C2.246999979019165,6.741000175476074 -2.246999979019165,6.741000175476074 -2.246999979019165,6.741000175476074 C-2.246999979019165,6.741000175476074 -2.246999979019165,-6.741000175476074 -2.246999979019165,-6.741000175476074 C-2.246999979019165,-6.741000175476074 2.246999979019165,-6.741000175476074 2.246999979019165,-6.741000175476074 C2.246999979019165,-6.741000175476074 2.246999979019165,6.741000175476074 2.246999979019165,6.741000175476074z"></path></g><g opacity="1" transform="matrix(1,0,0,1,137.77099609375,6.991000175476074)"><path fill="rgb(247,219,172)" fill-opacity="1" d=" M2.246999979019165,6.741000175476074 C2.246999979019165,6.741000175476074 -2.246999979019165,6.741000175476074 -2.246999979019165,6.741000175476074 C-2.246999979019165,6.741000175476074 -2.246999979019165,-6.741000175476074 -2.246999979019165,-6.741000175476074 C-2.246999979019165,-6.741000175476074 2.246999979019165,-6.741000175476074 2.246999979019165,-6.741000175476074 C2.246999979019165,-6.741000175476074 2.246999979019165,6.741000175476074 2.246999979019165,6.741000175476074z"></path></g><g opacity="1" transform="matrix(1,0,0,1,160.24099731445312,6.991000175476074)"><path fill="rgb(247,219,172)" fill-opacity="1" d=" M2.246999979019165,6.741000175476074 C2.246999979019165,6.741000175476074 -2.246999979019165,6.741000175476074 -2.246999979019165,6.741000175476074 C-2.246999979019165,6.741000175476074 -2.246999979019165,-6.741000175476074 -2.246999979019165,-6.741000175476074 C-2.246999979019165,-6.741000175476074 2.246999979019165,-6.741000175476074 2.246999979019165,-6.741000175476074 C2.246999979019165,-6.741000175476074 2.246999979019165,6.741000175476074 2.246999979019165,6.741000175476074z"></path></g><g opacity="1" transform="matrix(1,0,0,1,182.71200561523438,6.991000175476074)"><path fill="rgb(247,219,172)" fill-opacity="1" d=" M2.246999979019165,6.741000175476074 C2.246999979019165,6.741000175476074 -2.246999979019165,6.741000175476074 -2.246999979019165,6.741000175476074 C-2.246999979019165,6.741000175476074 -2.246999979019165,-6.741000175476074 -2.246999979019165,-6.741000175476074 C-2.246999979019165,-6.741000175476074 2.246999979019165,-6.741000175476074 2.246999979019165,-6.741000175476074 C2.246999979019165,-6.741000175476074 2.246999979019165,6.741000175476074 2.246999979019165,6.741000175476074z"></path></g><g opacity="1" transform="matrix(1,0,0,1,205.1820068359375,6.991000175476074)"><path fill="rgb(247,219,172)" fill-opacity="1" d=" M2.246999979019165,6.741000175476074 C2.246999979019165,6.741000175476074 -2.246999979019165,6.741000175476074 -2.246999979019165,6.741000175476074 C-2.246999979019165,6.741000175476074 -2.246999979019165,-6.741000175476074 -2.246999979019165,-6.741000175476074 C-2.246999979019165,-6.741000175476074 2.246999979019165,-6.741000175476074 2.246999979019165,-6.741000175476074 C2.246999979019165,-6.741000175476074 2.246999979019165,6.741000175476074 2.246999979019165,6.741000175476074z"></path></g><g opacity="1" transform="matrix(1,0,0,1,227.6529998779297,6.991000175476074)"><path fill="rgb(247,219,172)" fill-opacity="1" d=" M2.246999979019165,6.741000175476074 C2.246999979019165,6.741000175476074 -2.246999979019165,6.741000175476074 -2.246999979019165,6.741000175476074 C-2.246999979019165,6.741000175476074 -2.246999979019165,-6.741000175476074 -2.246999979019165,-6.741000175476074 C-2.246999979019165,-6.741000175476074 2.246999979019165,-6.741000175476074 2.246999979019165,-6.741000175476074 C2.246999979019165,-6.741000175476074 2.246999979019165,6.741000175476074 2.246999979019165,6.741000175476074z"></path></g><g opacity="1" transform="matrix(1,0,0,1,250.1230010986328,6.991000175476074)"><path fill="rgb(247,219,172)" fill-opacity="1" d=" M2.246999979019165,6.741000175476074 C2.246999979019165,6.741000175476074 -2.246999979019165,6.741000175476074 -2.246999979019165,6.741000175476074 C-2.246999979019165,6.741000175476074 -2.246999979019165,-6.741000175476074 -2.246999979019165,-6.741000175476074 C-2.246999979019165,-6.741000175476074 2.246999979019165,-6.741000175476074 2.246999979019165,-6.741000175476074 C2.246999979019165,-6.741000175476074 2.246999979019165,6.741000175476074 2.246999979019165,6.741000175476074z"></path></g><g opacity="1" transform="matrix(1,0,0,1,272.593994140625,6.991000175476074)"><path fill="rgb(247,219,172)" fill-opacity="1" d=" M2.246999979019165,6.741000175476074 C2.246999979019165,6.741000175476074 -2.246999979019165,6.741000175476074 -2.246999979019165,6.741000175476074 C-2.246999979019165,6.741000175476074 -2.246999979019165,-6.741000175476074 -2.246999979019165,-6.741000175476074 C-2.246999979019165,-6.741000175476074 2.246999979019165,-6.741000175476074 2.246999979019165,-6.741000175476074 C2.246999979019165,-6.741000175476074 2.246999979019165,6.741000175476074 2.246999979019165,6.741000175476074z"></path></g><g opacity="1" transform="matrix(1,0,0,1,295.06500244140625,6.991000175476074)"><path fill="rgb(247,219,172)" fill-opacity="1" d=" M2.246999979019165,6.741000175476074 C2.246999979019165,6.741000175476074 -2.246999979019165,6.741000175476074 -2.246999979019165,6.741000175476074 C-2.246999979019165,6.741000175476074 -2.246999979019165,-6.741000175476074 -2.246999979019165,-6.741000175476074 C-2.246999979019165,-6.741000175476074 2.246999979019165,-6.741000175476074 2.246999979019165,-6.741000175476074 C2.246999979019165,-6.741000175476074 2.246999979019165,6.741000175476074 2.246999979019165,6.741000175476074z"></path></g><g opacity="1" transform="matrix(1,0,0,1,310.3450012207031,6.991000175476074)"><path fill="rgb(247,219,172)" fill-opacity="1" d=" M2.246999979019165,6.741000175476074 C2.246999979019165,6.741000175476074 -2.246999979019165,6.741000175476074 -2.246999979019165,6.741000175476074 C-2.246999979019165,6.741000175476074 -2.246999979019165,-6.741000175476074 -2.246999979019165,-6.741000175476074 C-2.246999979019165,-6.741000175476074 2.246999979019165,-6.741000175476074 2.246999979019165,-6.741000175476074 C2.246999979019165,-6.741000175476074 2.246999979019165,6.741000175476074 2.246999979019165,6.741000175476074z"></path></g></g><g clip-path="url(#__lottie_element_54)" transform="matrix(1.0956462621688843,0.004247358534485102,-0.004247358534485102,1.0956462621688843,111.01983642578125,792.0117797851562)" opacity="1" style="display: block;"><g opacity="1" transform="matrix(1,0,0,1,157.09500122070312,6.541999816894531)"><path fill="rgb(247,219,172)" fill-opacity="1" d=" M-155.4969940185547,1.3480000495910645 C-155.4969940185547,1.3480000495910645 155.49600219726562,1.3480000495910645 155.49600219726562,1.3480000495910645 C155.49600219726562,1.3480000495910645 155.49600219726562,-1.3480000495910645 155.49600219726562,-1.3480000495910645 C155.49600219726562,-1.3480000495910645 -155.4969940185547,-1.3480000495910645 -155.4969940185547,-1.3480000495910645 C-155.4969940185547,-1.3480000495910645 -155.4969940185547,1.3480000495910645 -155.4969940185547,1.3480000495910645z"></path></g><g opacity="1" transform="matrix(1,0,0,1,308.9960021972656,7.889999866485596)"><path fill="rgb(247,219,172)" fill-opacity="1" d=" M-2.246999979019165,6.741000175476074 C-2.246999979019165,6.741000175476074 2.246999979019165,6.741000175476074 2.246999979019165,6.741000175476074 C2.246999979019165,6.741000175476074 2.246999979019165,-6.741000175476074 2.246999979019165,-6.741000175476074 C2.246999979019165,-6.741000175476074 -2.246999979019165,-6.741000175476074 -2.246999979019165,-6.741000175476074 C-2.246999979019165,-6.741000175476074 -2.246999979019165,6.741000175476074 -2.246999979019165,6.741000175476074z"></path></g><g opacity="1" transform="matrix(1,0,0,1,287.42401123046875,6.991000175476074)"><path fill="rgb(247,219,172)" fill-opacity="1" d=" M-2.246999979019165,6.741000175476074 C-2.246999979019165,6.741000175476074 2.246999979019165,6.741000175476074 2.246999979019165,6.741000175476074 C2.246999979019165,6.741000175476074 2.246999979019165,-6.741000175476074 2.246999979019165,-6.741000175476074 C2.246999979019165,-6.741000175476074 -2.246999979019165,-6.741000175476074 -2.246999979019165,-6.741000175476074 C-2.246999979019165,-6.741000175476074 -2.246999979019165,6.741000175476074 -2.246999979019165,6.741000175476074z"></path></g><g opacity="1" transform="matrix(1,0,0,1,264.9530029296875,6.991000175476074)"><path fill="rgb(247,219,172)" fill-opacity="1" d=" M-2.246999979019165,6.741000175476074 C-2.246999979019165,6.741000175476074 2.246999979019165,6.741000175476074 2.246999979019165,6.741000175476074 C2.246999979019165,6.741000175476074 2.246999979019165,-6.741000175476074 2.246999979019165,-6.741000175476074 C2.246999979019165,-6.741000175476074 -2.246999979019165,-6.741000175476074 -2.246999979019165,-6.741000175476074 C-2.246999979019165,-6.741000175476074 -2.246999979019165,6.741000175476074 -2.246999979019165,6.741000175476074z"></path></g><g opacity="1" transform="matrix(1,0,0,1,242.48300170898438,6.991000175476074)"><path fill="rgb(247,219,172)" fill-opacity="1" d=" M-2.246999979019165,6.741000175476074 C-2.246999979019165,6.741000175476074 2.246999979019165,6.741000175476074 2.246999979019165,6.741000175476074 C2.246999979019165,6.741000175476074 2.246999979019165,-6.741000175476074 2.246999979019165,-6.741000175476074 C2.246999979019165,-6.741000175476074 -2.246999979019165,-6.741000175476074 -2.246999979019165,-6.741000175476074 C-2.246999979019165,-6.741000175476074 -2.246999979019165,6.741000175476074 -2.246999979019165,6.741000175476074z"></path></g><g opacity="1" transform="matrix(1,0,0,1,220.01199340820312,6.991000175476074)"><path fill="rgb(247,219,172)" fill-opacity="1" d=" M-2.246999979019165,6.741000175476074 C-2.246999979019165,6.741000175476074 2.246999979019165,6.741000175476074 2.246999979019165,6.741000175476074 C2.246999979019165,6.741000175476074 2.246999979019165,-6.741000175476074 2.246999979019165,-6.741000175476074 C2.246999979019165,-6.741000175476074 -2.246999979019165,-6.741000175476074 -2.246999979019165,-6.741000175476074 C-2.246999979019165,-6.741000175476074 -2.246999979019165,6.741000175476074 -2.246999979019165,6.741000175476074z"></path></g><g opacity="1" transform="matrix(1,0,0,1,197.54200744628906,6.991000175476074)"><path fill="rgb(247,219,172)" fill-opacity="1" d=" M-2.246999979019165,6.741000175476074 C-2.246999979019165,6.741000175476074 2.246999979019165,6.741000175476074 2.246999979019165,6.741000175476074 C2.246999979019165,6.741000175476074 2.246999979019165,-6.741000175476074 2.246999979019165,-6.741000175476074 C2.246999979019165,-6.741000175476074 -2.246999979019165,-6.741000175476074 -2.246999979019165,-6.741000175476074 C-2.246999979019165,-6.741000175476074 -2.246999979019165,6.741000175476074 -2.246999979019165,6.741000175476074z"></path></g><g opacity="1" transform="matrix(1,0,0,1,175.0709991455078,6.991000175476074)"><path fill="rgb(247,219,172)" fill-opacity="1" d=" M-2.246999979019165,6.741000175476074 C-2.246999979019165,6.741000175476074 2.246999979019165,6.741000175476074 2.246999979019165,6.741000175476074 C2.246999979019165,6.741000175476074 2.246999979019165,-6.741000175476074 2.246999979019165,-6.741000175476074 C2.246999979019165,-6.741000175476074 -2.246999979019165,-6.741000175476074 -2.246999979019165,-6.741000175476074 C-2.246999979019165,-6.741000175476074 -2.246999979019165,6.741000175476074 -2.246999979019165,6.741000175476074z"></path></g><g opacity="1" transform="matrix(1,0,0,1,152.60000610351562,6.991000175476074)"><path fill="rgb(247,219,172)" fill-opacity="1" d=" M-2.246999979019165,6.741000175476074 C-2.246999979019165,6.741000175476074 2.246999979019165,6.741000175476074 2.246999979019165,6.741000175476074 C2.246999979019165,6.741000175476074 2.246999979019165,-6.741000175476074 2.246999979019165,-6.741000175476074 C2.246999979019165,-6.741000175476074 -2.246999979019165,-6.741000175476074 -2.246999979019165,-6.741000175476074 C-2.246999979019165,-6.741000175476074 -2.246999979019165,6.741000175476074 -2.246999979019165,6.741000175476074z"></path></g><g opacity="1" transform="matrix(1,0,0,1,130.1300048828125,6.991000175476074)"><path fill="rgb(247,219,172)" fill-opacity="1" d=" M-2.246999979019165,6.741000175476074 C-2.246999979019165,6.741000175476074 2.246999979019165,6.741000175476074 2.246999979019165,6.741000175476074 C2.246999979019165,6.741000175476074 2.246999979019165,-6.741000175476074 2.246999979019165,-6.741000175476074 C2.246999979019165,-6.741000175476074 -2.246999979019165,-6.741000175476074 -2.246999979019165,-6.741000175476074 C-2.246999979019165,-6.741000175476074 -2.246999979019165,6.741000175476074 -2.246999979019165,6.741000175476074z"></path></g><g opacity="1" transform="matrix(1,0,0,1,107.65899658203125,6.991000175476074)"><path fill="rgb(247,219,172)" fill-opacity="1" d=" M-2.246999979019165,6.741000175476074 C-2.246999979019165,6.741000175476074 2.246999979019165,6.741000175476074 2.246999979019165,6.741000175476074 C2.246999979019165,6.741000175476074 2.246999979019165,-6.741000175476074 2.246999979019165,-6.741000175476074 C2.246999979019165,-6.741000175476074 -2.246999979019165,-6.741000175476074 -2.246999979019165,-6.741000175476074 C-2.246999979019165,-6.741000175476074 -2.246999979019165,6.741000175476074 -2.246999979019165,6.741000175476074z"></path></g><g opacity="1" transform="matrix(1,0,0,1,85.18900299072266,6.991000175476074)"><path fill="rgb(247,219,172)" fill-opacity="1" d=" M-2.246999979019165,6.741000175476074 C-2.246999979019165,6.741000175476074 2.246999979019165,6.741000175476074 2.246999979019165,6.741000175476074 C2.246999979019165,6.741000175476074 2.246999979019165,-6.741000175476074 2.246999979019165,-6.741000175476074 C2.246999979019165,-6.741000175476074 -2.246999979019165,-6.741000175476074 -2.246999979019165,-6.741000175476074 C-2.246999979019165,-6.741000175476074 -2.246999979019165,6.741000175476074 -2.246999979019165,6.741000175476074z"></path></g><g opacity="1" transform="matrix(1,0,0,1,62.71799850463867,6.991000175476074)"><path fill="rgb(247,219,172)" fill-opacity="1" d=" M-2.246999979019165,6.741000175476074 C-2.246999979019165,6.741000175476074 2.246999979019165,6.741000175476074 2.246999979019165,6.741000175476074 C2.246999979019165,6.741000175476074 2.246999979019165,-6.741000175476074 2.246999979019165,-6.741000175476074 C2.246999979019165,-6.741000175476074 -2.246999979019165,-6.741000175476074 -2.246999979019165,-6.741000175476074 C-2.246999979019165,-6.741000175476074 -2.246999979019165,6.741000175476074 -2.246999979019165,6.741000175476074z"></path></g><g opacity="1" transform="matrix(1,0,0,1,40.24700164794922,6.991000175476074)"><path fill="rgb(247,219,172)" fill-opacity="1" d=" M-2.246999979019165,6.741000175476074 C-2.246999979019165,6.741000175476074 2.246999979019165,6.741000175476074 2.246999979019165,6.741000175476074 C2.246999979019165,6.741000175476074 2.246999979019165,-6.741000175476074 2.246999979019165,-6.741000175476074 C2.246999979019165,-6.741000175476074 -2.246999979019165,-6.741000175476074 -2.246999979019165,-6.741000175476074 C-2.246999979019165,-6.741000175476074 -2.246999979019165,6.741000175476074 -2.246999979019165,6.741000175476074z"></path></g><g opacity="1" transform="matrix(1,0,0,1,17.777000427246094,6.991000175476074)"><path fill="rgb(247,219,172)" fill-opacity="1" d=" M-2.246999979019165,6.741000175476074 C-2.246999979019165,6.741000175476074 2.246999979019165,6.741000175476074 2.246999979019165,6.741000175476074 C2.246999979019165,6.741000175476074 2.246999979019165,-6.741000175476074 2.246999979019165,-6.741000175476074 C2.246999979019165,-6.741000175476074 -2.246999979019165,-6.741000175476074 -2.246999979019165,-6.741000175476074 C-2.246999979019165,-6.741000175476074 -2.246999979019165,6.741000175476074 -2.246999979019165,6.741000175476074z"></path></g><g opacity="1" transform="matrix(1,0,0,1,2.496999979019165,6.991000175476074)"><path fill="rgb(247,219,172)" fill-opacity="1" d=" M-2.246999979019165,6.741000175476074 C-2.246999979019165,6.741000175476074 2.246999979019165,6.741000175476074 2.246999979019165,6.741000175476074 C2.246999979019165,6.741000175476074 2.246999979019165,-6.741000175476074 2.246999979019165,-6.741000175476074 C2.246999979019165,-6.741000175476074 -2.246999979019165,-6.741000175476074 -2.246999979019165,-6.741000175476074 C-2.246999979019165,-6.741000175476074 -2.246999979019165,6.741000175476074 -2.246999979019165,6.741000175476074z"></path></g></g><g transform="matrix(1.0956462621688843,0.004247358534485102,-0.004247358534485102,1.0956462621688843,481.97021484375,748.1467895507812)" opacity="1" style="display: block;"><g opacity="1" transform="matrix(1,0,0,1,22.270999908447266,28.11400032043457)"><path fill="rgb(56,0,1)" fill-opacity="1" d=" M22.020999908447266,27.86400032043457 C22.020999908447266,27.86400032043457 -22.020999908447266,27.86400032043457 -22.020999908447266,27.86400032043457 C-22.020999908447266,27.86400032043457 -22.020999908447266,-27.86400032043457 -22.020999908447266,-27.86400032043457 C-22.020999908447266,-27.86400032043457 22.020999908447266,-27.86400032043457 22.020999908447266,-27.86400032043457 C22.020999908447266,-27.86400032043457 22.020999908447266,27.86400032043457 22.020999908447266,27.86400032043457z"></path></g></g><g transform="matrix(1.0956462621688843,0.004247358534485102,-0.004247358534485102,1.0956462621688843,486.3819274902344,753.0889282226562)" opacity="1" style="display: block;"><g opacity="1" transform="matrix(1,0,0,1,18.226999282836914,25.867000579833984)"><path fill="rgb(72,3,7)" fill-opacity="1" d=" M17.976999282836914,25.617000579833984 C17.976999282836914,25.617000579833984 -17.976999282836914,25.617000579833984 -17.976999282836914,25.617000579833984 C-17.976999282836914,25.617000579833984 -17.976999282836914,-25.617000579833984 -17.976999282836914,-25.617000579833984 C-17.976999282836914,-25.617000579833984 17.976999282836914,-25.617000579833984 17.976999282836914,-25.617000579833984 C17.976999282836914,-25.617000579833984 17.976999282836914,25.617000579833984 17.976999282836914,25.617000579833984z"></path></g></g><g transform="matrix(1.0956462621688843,0.004247358534485102,-0.004247358534485102,1.0956462621688843,112.47899627685547,669.8998413085938)" opacity="1" style="display: block;"><g opacity="1" transform="matrix(1,0,0,1,356.6340026855469,7.440999984741211)"><path fill="rgb(19,54,62)" fill-opacity="1" d=" M-355.4849853515625,-7.190999984741211 C-355.4849853515625,-7.190999984741211 -356.3840026855469,2.697000026702881 -314.1390075683594,7.190999984741211 C-314.1390075683594,7.190999984741211 310.5429992675781,7.190999984741211 310.5429992675781,7.190999984741211 C348.29400634765625,7.190999984741211 356.3840026855469,-7.190999984741211 356.3840026855469,-7.190999984741211 C356.3840026855469,-7.190999984741211 -355.4849853515625,-7.190999984741211 -355.4849853515625,-7.190999984741211z"></path></g></g><g transform="matrix(1.0956462621688843,0.004247358534485102,-0.004247358534485102,1.0956462621688843,479.75726318359375,684.12548828125)" opacity="1" style="display: block;"><g opacity="1" transform="matrix(1,0,0,1,23.6200008392334,2.947000026702881)"><path fill="rgb(247,143,28)" fill-opacity="1" d=" M20.673999786376953,2.697000026702881 C20.673999786376953,2.697000026702881 -20.67300033569336,2.697000026702881 -20.67300033569336,2.697000026702881 C-22.16200065612793,2.697000026702881 -23.368999481201172,1.4900000095367432 -23.368999481201172,0.0010000000474974513 C-23.368999481201172,-1.4889999628067017 -22.16200065612793,-2.697000026702881 -20.67300033569336,-2.697000026702881 C-20.67300033569336,-2.697000026702881 20.673999786376953,-2.697000026702881 20.673999786376953,-2.697000026702881 C22.163000106811523,-2.697000026702881 23.368999481201172,-1.4889999628067017 23.368999481201172,0.0010000000474974513 C23.368999481201172,1.4900000095367432 22.163000106811523,2.697000026702881 20.673999786376953,2.697000026702881z"></path></g></g><g transform="matrix(1.0956462621688843,0.004247358534485102,-0.004247358534485102,1.0956462621688843,316.4065856933594,396.86627197265625)" opacity="1" style="display: block;"><g opacity="1" transform="matrix(1,0,0,1,11.03600025177002,15.081000328063965)"><path fill="rgb(247,174,56)" fill-opacity="1" d=" M10.78600025177002,14.831000328063965 C10.78600025177002,14.831000328063965 -10.78600025177002,14.831000328063965 -10.78600025177002,14.831000328063965 C-10.78600025177002,14.831000328063965 -10.78600025177002,-14.831000328063965 -10.78600025177002,-14.831000328063965 C-10.78600025177002,-14.831000328063965 10.78600025177002,-14.831000328063965 10.78600025177002,-14.831000328063965 C10.78600025177002,-14.831000328063965 10.78600025177002,14.831000328063965 10.78600025177002,14.831000328063965z"></path></g></g><g transform="matrix(1.0956462621688843,0.004247358534485102,-0.004247358534485102,1.0956462621688843,689.6437377929688,398.31317138671875)" opacity="1" style="display: block;"><g opacity="1" transform="matrix(1,0,0,1,11.03600025177002,15.081000328063965)"><path fill="rgb(247,174,56)" fill-opacity="1" d=" M10.78600025177002,14.831000328063965 C10.78600025177002,14.831000328063965 -10.78600025177002,14.831000328063965 -10.78600025177002,14.831000328063965 C-10.78600025177002,14.831000328063965 -10.78600025177002,-14.831000328063965 -10.78600025177002,-14.831000328063965 C-10.78600025177002,-14.831000328063965 10.78600025177002,-14.831000328063965 10.78600025177002,-14.831000328063965 C10.78600025177002,-14.831000328063965 10.78600025177002,14.831000328063965 10.78600025177002,14.831000328063965z"></path></g></g><g transform="matrix(1.0956462621688843,0.004247358534485102,-0.004247358534485102,1.0956462621688843,214.1107635498047,619.0830078125)" opacity="1" style="display: block;"><g opacity="1" transform="matrix(1,0,0,1,264.05499267578125,11.03600025177002)"><path fill="rgb(24,85,113)" fill-opacity="1" d=" M263.80499267578125,10.78600025177002 C263.80499267578125,10.78600025177002 -263.80499267578125,10.78600025177002 -263.80499267578125,10.78600025177002 C-263.80499267578125,10.78600025177002 -263.80499267578125,-10.78600025177002 -263.80499267578125,-10.78600025177002 C-263.80499267578125,-10.78600025177002 263.80499267578125,-10.78600025177002 263.80499267578125,-10.78600025177002 C263.80499267578125,-10.78600025177002 263.80499267578125,10.78600025177002 263.80499267578125,10.78600025177002z"></path></g></g><g transform="matrix(1.0956462621688843,0.004247358534485102,-0.004247358534485102,1.0956462621688843,214.17564392089844,602.34326171875)" opacity="1" style="display: block;"><g opacity="1" transform="matrix(1,0,0,1,264.05499267578125,7.889999866485596)"><path fill="rgb(238,77,73)" fill-opacity="1" d=" M263.80499267578125,7.639999866485596 C263.80499267578125,7.639999866485596 -263.80499267578125,7.639999866485596 -263.80499267578125,7.639999866485596 C-263.80499267578125,7.639999866485596 -263.80499267578125,-7.639999866485596 -263.80499267578125,-7.639999866485596 C-263.80499267578125,-7.639999866485596 263.80499267578125,-7.639999866485596 263.80499267578125,-7.639999866485596 C263.80499267578125,-7.639999866485596 263.80499267578125,7.639999866485596 263.80499267578125,7.639999866485596z"></path></g></g><g transform="matrix(1.0956462621688843,0.004247358534485102,-0.004247358534485102,1.0956462621688843,113.5850601196289,638.3909301757812)" opacity="1" style="display: block;"><g opacity="1" transform="matrix(1,0,0,1,356.18499755859375,14.630999565124512)"><path fill="rgb(247,174,56)" fill-opacity="1" d=" M-355.93499755859375,14.380999565124512 C-355.93499755859375,14.380999565124512 -303.8030090332031,0 -284.02899169921875,-14.380999565124512 C-284.02899169921875,-14.380999565124512 285.82598876953125,-14.380999565124512 285.82598876953125,-14.380999565124512 C285.82598876953125,-14.380999565124512 312.7909851074219,3.5950000286102295 355.93499755859375,14.380999565124512 C355.93499755859375,14.380999565124512 -355.93499755859375,14.380999565124512 -355.93499755859375,14.380999565124512z"></path></g></g><g transform="matrix(1.0956462621688843,0.004247358534485102,-0.004247358534485102,1.0956462621688843,271.4154968261719,545.9630126953125)" opacity="1" style="display: block;"><g opacity="1" transform="matrix(1,0,0,1,4.294000148773193,27.663999557495117)"><path fill="rgb(193,44,44)" fill-opacity="1" d=" M4.044000148773193,27.413999557495117 C4.044000148773193,27.413999557495117 -4.044000148773193,27.413999557495117 -4.044000148773193,27.413999557495117 C-4.044000148773193,27.413999557495117 -4.044000148773193,-27.413999557495117 -4.044000148773193,-27.413999557495117 C-4.044000148773193,-27.413999557495117 4.044000148773193,-27.413999557495117 4.044000148773193,-27.413999557495117 C4.044000148773193,-27.413999557495117 4.044000148773193,27.413999557495117 4.044000148773193,27.413999557495117z"></path></g></g><g transform="matrix(1.0956462621688843,0.004247358534485102,-0.004247358534485102,1.0956462621688843,328.434814453125,546.1840209960938)" opacity="1" style="display: block;"><g opacity="1" transform="matrix(1,0,0,1,4.294000148773193,27.663999557495117)"><path fill="rgb(193,44,44)" fill-opacity="1" d=" M4.044000148773193,27.413999557495117 C4.044000148773193,27.413999557495117 -4.044000148773193,27.413999557495117 -4.044000148773193,27.413999557495117 C-4.044000148773193,27.413999557495117 -4.044000148773193,-27.413999557495117 -4.044000148773193,-27.413999557495117 C-4.044000148773193,-27.413999557495117 4.044000148773193,-27.413999557495117 4.044000148773193,-27.413999557495117 C4.044000148773193,-27.413999557495117 4.044000148773193,27.413999557495117 4.044000148773193,27.413999557495117z"></path></g></g><g transform="matrix(1.0956462621688843,0.004247358534485102,-0.004247358534485102,1.0956462621688843,442.47442626953125,546.6261596679688)" opacity="1" style="display: block;"><g opacity="1" transform="matrix(1,0,0,1,4.294000148773193,27.663999557495117)"><path fill="rgb(193,44,44)" fill-opacity="1" d=" M4.044000148773193,27.413999557495117 C4.044000148773193,27.413999557495117 -4.044000148773193,27.413999557495117 -4.044000148773193,27.413999557495117 C-4.044000148773193,27.413999557495117 -4.044000148773193,-27.413999557495117 -4.044000148773193,-27.413999557495117 C-4.044000148773193,-27.413999557495117 4.044000148773193,-27.413999557495117 4.044000148773193,-27.413999557495117 C4.044000148773193,-27.413999557495117 4.044000148773193,27.413999557495117 4.044000148773193,27.413999557495117z"></path></g></g><g transform="matrix(1.0956462621688843,0.004247358534485102,-0.004247358534485102,1.0956462621688843,499.4917297363281,546.84716796875)" opacity="1" style="display: block;"><g opacity="1" transform="matrix(1,0,0,1,4.295000076293945,27.663999557495117)"><path fill="rgb(193,44,44)" fill-opacity="1" d=" M4.045000076293945,27.413999557495117 C4.045000076293945,27.413999557495117 -4.045000076293945,27.413999557495117 -4.045000076293945,27.413999557495117 C-4.045000076293945,27.413999557495117 -4.045000076293945,-27.413999557495117 -4.045000076293945,-27.413999557495117 C-4.045000076293945,-27.413999557495117 4.045000076293945,-27.413999557495117 4.045000076293945,-27.413999557495117 C4.045000076293945,-27.413999557495117 4.045000076293945,27.413999557495117 4.045000076293945,27.413999557495117z"></path></g></g><g transform="matrix(1.0956462621688843,0.004247358534485102,-0.004247358534485102,1.0956462621688843,556.5120239257812,547.0682373046875)" opacity="1" style="display: block;"><g opacity="1" transform="matrix(1,0,0,1,4.295000076293945,27.663999557495117)"><path fill="rgb(193,44,44)" fill-opacity="1" d=" M4.045000076293945,27.413999557495117 C4.045000076293945,27.413999557495117 -4.045000076293945,27.413999557495117 -4.045000076293945,27.413999557495117 C-4.045000076293945,27.413999557495117 -4.045000076293945,-27.413999557495117 -4.045000076293945,-27.413999557495117 C-4.045000076293945,-27.413999557495117 4.045000076293945,-27.413999557495117 4.045000076293945,-27.413999557495117 C4.045000076293945,-27.413999557495117 4.045000076293945,27.413999557495117 4.045000076293945,27.413999557495117z"></path></g></g><g transform="matrix(1.0956462621688843,0.004247358534485102,-0.004247358534485102,1.0956462621688843,670.5517578125,547.5103149414062)" opacity="1" style="display: block;"><g opacity="1" transform="matrix(1,0,0,1,4.294000148773193,27.663999557495117)"><path fill="rgb(193,44,44)" fill-opacity="1" d=" M4.044000148773193,27.413999557495117 C4.044000148773193,27.413999557495117 -4.044000148773193,27.413999557495117 -4.044000148773193,27.413999557495117 C-4.044000148773193,27.413999557495117 -4.044000148773193,-27.413999557495117 -4.044000148773193,-27.413999557495117 C-4.044000148773193,-27.413999557495117 4.044000148773193,-27.413999557495117 4.044000148773193,-27.413999557495117 C4.044000148773193,-27.413999557495117 4.044000148773193,27.413999557495117 4.044000148773193,27.413999557495117z"></path></g></g><g transform="matrix(1.0956462621688843,0.004247358534485102,-0.004247358534485102,1.0956462621688843,727.5711059570312,547.7313232421875)" opacity="1" style="display: block;"><g opacity="1" transform="matrix(1,0,0,1,4.294000148773193,27.663999557495117)"><path fill="rgb(193,44,44)" fill-opacity="1" d=" M4.044000148773193,27.413999557495117 C4.044000148773193,27.413999557495117 -4.044000148773193,27.413999557495117 -4.044000148773193,27.413999557495117 C-4.044000148773193,27.413999557495117 -4.044000148773193,-27.413999557495117 -4.044000148773193,-27.413999557495117 C-4.044000148773193,-27.413999557495117 4.044000148773193,-27.413999557495117 4.044000148773193,-27.413999557495117 C4.044000148773193,-27.413999557495117 4.044000148773193,27.413999557495117 4.044000148773193,27.413999557495117z"></path></g></g><g transform="matrix(1.0956462621688843,0.004247358534485102,-0.004247358534485102,1.0956462621688843,209.49961853027344,538.3125610351562)" opacity="1" style="display: block;"><g opacity="1" transform="matrix(1,0,0,1,268.99798583984375,7.440000057220459)"><path fill="rgb(20,84,112)" fill-opacity="1" d=" M264.2550048828125,7.190000057220459 C264.2550048828125,7.190000057220459 -264.2539978027344,7.190000057220459 -264.2539978027344,7.190000057220459 C-264.2539978027344,7.190000057220459 -268.74798583984375,-7.190000057220459 -268.74798583984375,-7.190000057220459 C-268.74798583984375,-7.190000057220459 268.7489929199219,-7.190000057220459 268.7489929199219,-7.190000057220459 C268.7489929199219,-7.190000057220459 264.2550048828125,7.190000057220459 264.2550048828125,7.190000057220459z"></path></g></g><g transform="matrix(1.0956462621688843,0.004247358534485102,-0.004247358534485102,1.0956462621688843,214.09547424316406,623.023681640625)" opacity="1" style="display: block;"><g opacity="1" transform="matrix(1,0,0,1,264.05499267578125,3.8450000286102295)"><path fill="rgb(255,204,3)" fill-opacity="1" d=" M263.80499267578125,3.5950000286102295 C263.80499267578125,3.5950000286102295 -263.80499267578125,3.5950000286102295 -263.80499267578125,3.5950000286102295 C-263.80499267578125,3.5950000286102295 -263.80499267578125,-3.5950000286102295 -263.80499267578125,-3.5950000286102295 C-263.80499267578125,-3.5950000286102295 263.80499267578125,-3.5950000286102295 263.80499267578125,-3.5950000286102295 C263.80499267578125,-3.5950000286102295 263.80499267578125,3.5950000286102295 263.80499267578125,3.5950000286102295z"></path></g></g><g transform="matrix(1.0956462621688843,0.004247358534485102,-0.004247358534485102,1.0956462621688843,500.8880615234375,694.9746704101562)" opacity="1" style="display: block;"><g opacity="1" transform="matrix(1,0,0,1,5.192999839782715,5.193999767303467)"><path fill="rgb(248,215,58)" fill-opacity="1" d=" M4.942999839782715,4.943999767303467 C4.942999839782715,4.943999767303467 -4.942999839782715,4.943999767303467 -4.942999839782715,4.943999767303467 C-4.942999839782715,4.943999767303467 -4.942999839782715,-4.943999767303467 -4.942999839782715,-4.943999767303467 C-4.942999839782715,-4.943999767303467 4.942999839782715,-4.943999767303467 4.942999839782715,-4.943999767303467 C4.942999839782715,-4.943999767303467 4.942999839782715,4.943999767303467 4.942999839782715,4.943999767303467z"></path></g><g opacity="1" transform="matrix(1,0,0,1,5.192999839782715,19.69499969482422)"><path fill="rgb(248,215,58)" fill-opacity="1" d=" M4.942999839782715,4.943999767303467 C4.942999839782715,4.943999767303467 -4.942999839782715,4.943999767303467 -4.942999839782715,4.943999767303467 C-4.942999839782715,4.943999767303467 -4.942999839782715,-4.943999767303467 -4.942999839782715,-4.943999767303467 C-4.942999839782715,-4.943999767303467 4.942999839782715,-4.943999767303467 4.942999839782715,-4.943999767303467 C4.942999839782715,-4.943999767303467 4.942999839782715,4.943999767303467 4.942999839782715,4.943999767303467z"></path></g></g><g transform="matrix(1.0956462621688843,0.004247358534485102,-0.004247358534485102,1.0956462621688843,154.77352905273438,416.92132568359375)" opacity="1" style="display: block;"><g opacity="1" transform="matrix(1,0,0,1,322.3219909667969,46.540000915527344)"><path fill="rgb(247,174,56)" fill-opacity="1" d=" M-303.48199462890625,28.639999389648438 C-302.8349914550781,27.191999435424805 -301.2430114746094,26.41900062561035 -299.6629943847656,26.55699920654297 C-295.4679870605469,26.92300033569336 -283.82598876953125,27.006999969482422 -264.3299865722656,20.284000396728516 C-239.29800415039062,11.652999877929688 -182.33099365234375,-8.199999809265137 -160.7519989013672,-39.27299880981445 C-160.7519989013672,-39.27299880981445 174.1490020751953,-39.27299880981445 174.1490020751953,-39.27299880981445 C174.1490020751953,-39.27299880981445 201.7689971923828,-3.0209999084472656 273.4110107421875,21.14699935913086 C282.1919860839844,24.284000396728516 292.3429870605469,24.684999465942383 297.2330017089844,24.670000076293945 C299.8970031738281,24.66200065612793 302.47900390625,25.785999298095703 304.1289978027344,27.87700080871582 C306.2359924316406,30.54800033569336 306.6499938964844,34.36600112915039 296.7340087890625,37.4370002746582 C292.6610107421875,38.69900131225586 288.406005859375,39.27299880981445 284.1419982910156,39.27299880981445 C284.1419982910156,39.27299880981445 -279.00299072265625,39.27299880981445 -279.00299072265625,39.27299880981445 C-279.00299072265625,39.27299880981445 -306.6499938964844,35.729000091552734 -303.48199462890625,28.639999389648438z"></path></g><g opacity="1" transform="matrix(1,0,0,1,322.28900146484375,46.540000915527344)"><path fill="rgb(247,174,56)" fill-opacity="1" d=" M-316.0270080566406,29.822999954223633 C-315.3529968261719,28.315000534057617 -313.69500732421875,27.51099967956543 -312.04998779296875,27.655000686645508 C-307.6820068359375,28.03499984741211 -295.5589904785156,28.121999740600586 -275.2560119628906,21.121000289916992 C-249.19000244140625,12.133999824523926 -189.8679962158203,-8.539999961853027 -167.39700317382812,-40.89699935913086 C-167.39700317382812,-40.89699935913086 181.3470001220703,-40.89699935913086 181.3470001220703,-40.89699935913086 C181.3470001220703,-40.89699935913086 210.11000061035156,-3.1470000743865967 284.7120056152344,22.020000457763672 C293.85699462890625,25.285999298095703 304.42498779296875,25.70400047302246 309.5190124511719,25.68899917602539 C312.2919921875,25.68000030517578 314.9809875488281,26.851999282836914 316.70001220703125,29.030000686645508 C318.8940124511719,31.809999465942383 319.32598876953125,35.78499984741211 308.9989929199219,38.98400115966797 C304.75799560546875,40.29800033569336 300.3269958496094,40.89699935913086 295.88800048828125,40.89699935913086 C295.88800048828125,40.89699935913086 -290.5360107421875,40.89699935913086 -290.5360107421875,40.89699935913086 C-290.5360107421875,40.89699935913086 -319.32598876953125,37.20500183105469 -316.0270080566406,29.822999954223633z"></path></g><g opacity="1" transform="matrix(1,0,0,1,323.25299072265625,46.540000915527344)"><path fill="rgb(210,146,70)" fill-opacity="1" d=" M294.92401123046875,46.28900146484375 C294.92401123046875,46.28900146484375 -291.8450012207031,46.28900146484375 -291.8450012207031,46.28900146484375 C-291.8450012207031,46.28900146484375 -292.1860046386719,46.244998931884766 -292.1860046386719,46.244998931884766 C-301.4739990234375,45.05500030517578 -317.6440124511719,42.01100158691406 -321.57598876953125,35.005001068115234 C-322.88299560546875,32.67900085449219 -323.00299072265625,30.05699920654297 -321.9150085449219,27.62299919128418 C-321.9150085449219,27.62299919128418 -321.9150085449219,27.621999740600586 -321.9150085449219,27.621999740600586 C-320.3290100097656,24.07699966430664 -316.56500244140625,21.93199920654297 -312.5459899902344,22.2810001373291 C-308.6059875488281,22.625999450683594 -297.3479919433594,22.702999114990234 -277.97900390625,16.02400016784668 C-252.98500061035156,7.406000137329102 -194.45399475097656,-12.777999877929688 -172.79100036621094,-43.972999572753906 C-172.79100036621094,-43.972999572753906 -171.1820068359375,-46.28900146484375 -171.1820068359375,-46.28900146484375 C-171.1820068359375,-46.28900146484375 183.052001953125,-46.28900146484375 183.052001953125,-46.28900146484375 C183.052001953125,-46.28900146484375 184.6719970703125,-44.16400146484375 184.6719970703125,-44.16400146484375 C184.94500732421875,-43.80699920654297 213.58799743652344,-7.339000225067139 285.47100830078125,16.910999298095703 C285.47100830078125,16.910999298095703 285.55999755859375,16.94300079345703 285.55999755859375,16.94300079345703 C294.1419982910156,20.007999420166016 304.49798583984375,20.33099937438965 308.5360107421875,20.297000885009766 C308.5360107421875,20.297000885009766 308.5840148925781,20.297000885009766 308.5840148925781,20.297000885009766 C313.1159973144531,20.297000885009766 317.26300048828125,22.26099967956543 319.968994140625,25.690000534057617 C323.0039978027344,29.53499984741211 322.54400634765625,33.04899978637695 322,34.801998138427734 C320.3039855957031,40.2599983215332 314.12799072265625,42.742000579833984 309.6300048828125,44.13600158691406 C305.0169982910156,45.564998626708984 300.0690002441406,46.28900146484375 294.92401123046875,46.28900146484375z M-291.14898681640625,35.50299835205078 C-291.14898681640625,35.50299835205078 294.92401123046875,35.50299835205078 294.92401123046875,35.50299835205078 C298.9859924316406,35.50299835205078 302.8599853515625,34.94200134277344 306.43798828125,33.83300018310547 C308.8909912109375,33.07400131225586 310.2799987792969,32.375999450683594 311.0360107421875,31.900999069213867 C310.3949890136719,31.3799991607666 309.5199890136719,31.08300018310547 308.5830078125,31.08300018310547 C308.49798583984375,31.08099937438965 308.3819885253906,31.08300018310547 308.27801513671875,31.08300018310547 C302.47698974609375,31.08300018310547 291.6260070800781,30.549999237060547 281.98199462890625,27.117000579833984 C215.93299865722656,4.827000141143799 185.2010040283203,-26.969999313354492 177.84100341796875,-35.50400161743164 C177.84100341796875,-35.50400161743164 -165.61199951171875,-35.50400161743164 -165.61199951171875,-35.50400161743164 C-190.3679962158203,-2.7750000953674316 -249.06500244140625,17.46299934387207 -274.4620056152344,26.22100067138672 C-287.3340148925781,30.659000396728516 -297.197998046875,32.36600112915039 -304.010986328125,32.93299865722656 C-300.22601318359375,33.965999603271484 -295.62298583984375,34.90999984741211 -291.14898681640625,35.50299835205078z M311.6969909667969,32.65999984741211 C311.6969909667969,32.65999984741211 311.697998046875,32.65999984741211 311.697998046875,32.65999984741211 C311.697998046875,32.65999984741211 311.6969909667969,32.65999984741211 311.6969909667969,32.65999984741211z"></path></g></g><g transform="matrix(1.0956462621688843,0.004247358534485102,-0.004247358534485102,1.0956462621688843,171.29837036132812,518.4208984375)" opacity="1" style="display: block;"><g opacity="1" transform="matrix(1,0,0,1,310.2850036621094,9.260000228881836)"><path fill="rgb(19,54,62)" fill-opacity="1" d=" M-309.25299072265625,-9.010000228881836 C-309.25299072265625,-9.010000228881836 -310.0350036621094,3.378999948501587 -273.28399658203125,9.010000228881836 C-273.28399658203125,9.010000228881836 270.1570129394531,9.010000228881836 270.1570129394531,9.010000228881836 C302.99700927734375,9.010000228881836 310.0360107421875,-9.010000228881836 310.0360107421875,-9.010000228881836 C310.0360107421875,-9.010000228881836 -309.25299072265625,-9.010000228881836 -309.25299072265625,-9.010000228881836z"></path></g></g><g clip-path="url(#__lottie_element_99)" transform="matrix(1.0956462621688843,0.004247358534485102,-0.004247358534485102,1.0956462621688843,223.2256317138672,554.1224365234375)" opacity="1" style="display: block;"><g opacity="1" transform="matrix(1,0,0,1,282.031005859375,10.13700008392334)"><path fill="rgb(193,44,44)" fill-opacity="1" d=" M22.920000076293945,9.88700008392334 C22.920000076293945,9.88700008392334 22.920000076293945,9.88700008392334 22.920000076293945,9.88700008392334 C8.461000442504883,3.0829999446868896 -8.461000442504883,3.0829999446868896 -22.920000076293945,9.88700008392334 C-22.920000076293945,9.88700008392334 -22.920000076293945,-9.88700008392334 -22.920000076293945,-9.88700008392334 C-22.920000076293945,-9.88700008392334 22.920000076293945,-9.88700008392334 22.920000076293945,-9.88700008392334 C22.920000076293945,-9.88700008392334 22.920000076293945,9.88700008392334 22.920000076293945,9.88700008392334z"></path></g><g opacity="1" transform="matrix(1,0,0,1,22.270999908447266,10.13700008392334)"><path fill="rgb(193,44,44)" fill-opacity="1" d=" M22.020999908447266,9.88700008392334 C22.020999908447266,9.88700008392334 22.020999908447266,9.88700008392334 22.020999908447266,9.88700008392334 C8.128999710083008,3.0829999446868896 -8.128999710083008,3.0829999446868896 -22.020999908447266,9.88700008392334 C-22.020999908447266,9.88700008392334 -22.020999908447266,-9.88700008392334 -22.020999908447266,-9.88700008392334 C-22.020999908447266,-9.88700008392334 22.020999908447266,-9.88700008392334 22.020999908447266,-9.88700008392334 C22.020999908447266,-9.88700008392334 22.020999908447266,9.88700008392334 22.020999908447266,9.88700008392334z"></path></g><g opacity="1" transform="matrix(1,0,0,1,74.40299987792969,10.13700008392334)"><path fill="rgb(193,44,44)" fill-opacity="1" d=" M22.020999908447266,9.88700008392334 C22.020999908447266,9.88700008392334 22.020999908447266,9.88700008392334 22.020999908447266,9.88700008392334 C8.128999710083008,3.0829999446868896 -8.128999710083008,3.0829999446868896 -22.020999908447266,9.88700008392334 C-22.020999908447266,9.88700008392334 -22.020999908447266,-9.88700008392334 -22.020999908447266,-9.88700008392334 C-22.020999908447266,-9.88700008392334 22.020999908447266,-9.88700008392334 22.020999908447266,-9.88700008392334 C22.020999908447266,-9.88700008392334 22.020999908447266,9.88700008392334 22.020999908447266,9.88700008392334z"></path></g><g opacity="1" transform="matrix(1,0,0,1,126.53500366210938,10.13700008392334)"><path fill="rgb(193,44,44)" fill-opacity="1" d=" M22.020999908447266,9.88700008392334 C22.020999908447266,9.88700008392334 22.020999908447266,9.88700008392334 22.020999908447266,9.88700008392334 C8.128999710083008,3.0829999446868896 -8.128999710083008,3.0829999446868896 -22.020999908447266,9.88700008392334 C-22.020999908447266,9.88700008392334 -22.020999908447266,-9.88700008392334 -22.020999908447266,-9.88700008392334 C-22.020999908447266,-9.88700008392334 22.020999908447266,-9.88700008392334 22.020999908447266,-9.88700008392334 C22.020999908447266,-9.88700008392334 22.020999908447266,9.88700008392334 22.020999908447266,9.88700008392334z"></path></g><g opacity="1" transform="matrix(1,0,0,1,177.76699829101562,10.13700008392334)"><path fill="rgb(193,44,44)" fill-opacity="1" d=" M22.920000076293945,9.88700008392334 C22.920000076293945,9.88700008392334 22.920000076293945,9.88700008392334 22.920000076293945,9.88700008392334 C8.461000442504883,3.0829999446868896 -8.460000038146973,3.0829999446868896 -22.920000076293945,9.88700008392334 C-22.920000076293945,9.88700008392334 -22.920000076293945,-9.88700008392334 -22.920000076293945,-9.88700008392334 C-22.920000076293945,-9.88700008392334 22.920000076293945,-9.88700008392334 22.920000076293945,-9.88700008392334 C22.920000076293945,-9.88700008392334 22.920000076293945,9.88700008392334 22.920000076293945,9.88700008392334z"></path></g><g opacity="1" transform="matrix(1,0,0,1,229.8990020751953,10.13700008392334)"><path fill="rgb(193,44,44)" fill-opacity="1" d=" M22.920000076293945,9.88700008392334 C22.920000076293945,9.88700008392334 22.920000076293945,9.88700008392334 22.920000076293945,9.88700008392334 C8.461000442504883,3.0829999446868896 -8.460000038146973,3.0829999446868896 -22.920000076293945,9.88700008392334 C-22.920000076293945,9.88700008392334 -22.920000076293945,-9.88700008392334 -22.920000076293945,-9.88700008392334 C-22.920000076293945,-9.88700008392334 22.920000076293945,-9.88700008392334 22.920000076293945,-9.88700008392334 C22.920000076293945,-9.88700008392334 22.920000076293945,9.88700008392334 22.920000076293945,9.88700008392334z"></path></g><g opacity="1" transform="matrix(1,0,0,1,334.61199951171875,10.13700008392334)"><path fill="rgb(193,44,44)" fill-opacity="1" d=" M22.47100067138672,9.88700008392334 C22.47100067138672,9.88700008392334 22.47100067138672,9.88700008392334 22.47100067138672,9.88700008392334 C8.295000076293945,3.0829999446868896 -8.295999526977539,3.0829999446868896 -22.47100067138672,9.88700008392334 C-22.47100067138672,9.88700008392334 -22.47100067138672,-9.88700008392334 -22.47100067138672,-9.88700008392334 C-22.47100067138672,-9.88700008392334 22.47100067138672,-9.88700008392334 22.47100067138672,-9.88700008392334 C22.47100067138672,-9.88700008392334 22.47100067138672,9.88700008392334 22.47100067138672,9.88700008392334z"></path></g><g opacity="1" transform="matrix(1,0,0,1,386.7439880371094,10.13700008392334)"><path fill="rgb(193,44,44)" fill-opacity="1" d=" M22.47100067138672,9.88700008392334 C22.47100067138672,9.88700008392334 22.47100067138672,9.88700008392334 22.47100067138672,9.88700008392334 C8.295000076293945,3.0829999446868896 -8.295999526977539,3.0829999446868896 -22.47100067138672,9.88700008392334 C-22.47100067138672,9.88700008392334 -22.47100067138672,-9.88700008392334 -22.47100067138672,-9.88700008392334 C-22.47100067138672,-9.88700008392334 22.47100067138672,-9.88700008392334 22.47100067138672,-9.88700008392334 C22.47100067138672,-9.88700008392334 22.47100067138672,9.88700008392334 22.47100067138672,9.88700008392334z"></path></g><g opacity="1" transform="matrix(1,0,0,1,438.8760070800781,10.13700008392334)"><path fill="rgb(193,44,44)" fill-opacity="1" d=" M22.47100067138672,9.88700008392334 C22.47100067138672,9.88700008392334 22.47100067138672,9.88700008392334 22.47100067138672,9.88700008392334 C8.295000076293945,3.0829999446868896 -8.295999526977539,3.0829999446868896 -22.47100067138672,9.88700008392334 C-22.47100067138672,9.88700008392334 -22.47100067138672,-9.88700008392334 -22.47100067138672,-9.88700008392334 C-22.47100067138672,-9.88700008392334 22.47100067138672,-9.88700008392334 22.47100067138672,-9.88700008392334 C22.47100067138672,-9.88700008392334 22.47100067138672,9.88700008392334 22.47100067138672,9.88700008392334z"></path></g><g opacity="1" transform="matrix(1,0,0,1,491.00799560546875,10.13700008392334)"><path fill="rgb(193,44,44)" fill-opacity="1" d=" M22.47100067138672,9.88700008392334 C22.47100067138672,9.88700008392334 22.47100067138672,9.88700008392334 22.47100067138672,9.88700008392334 C8.295000076293945,3.0829999446868896 -8.295999526977539,3.0829999446868896 -22.47100067138672,9.88700008392334 C-22.47100067138672,9.88700008392334 -22.47100067138672,-9.88700008392334 -22.47100067138672,-9.88700008392334 C-22.47100067138672,-9.88700008392334 22.47100067138672,-9.88700008392334 22.47100067138672,-9.88700008392334 C22.47100067138672,-9.88700008392334 22.47100067138672,9.88700008392334 22.47100067138672,9.88700008392334z"></path></g></g><g mask="url(#__lottie_element_104_1)" style="display: block;"><g transform="matrix(1.0956462621688843,0.004247358534485102,-0.004247358534485102,1.0956462621688843,76.53299713134766,796.8012084960938)" opacity="1"><g opacity="1" transform="matrix(1,0,0,1,21.371999740600586,55.07899856567383)"><path fill="rgb(122,122,124)" fill-opacity="1" d=" M21.121999740600586,54.827999114990234 C21.121999740600586,54.827999114990234 -21.121999740600586,54.827999114990234 -21.121999740600586,54.827999114990234 C-21.121999740600586,54.827999114990234 -21.121999740600586,-54.827999114990234 -21.121999740600586,-54.827999114990234 C-21.121999740600586,-54.827999114990234 21.121999740600586,-44.042999267578125 21.121999740600586,-44.042999267578125 C21.121999740600586,-44.042999267578125 21.121999740600586,54.827999114990234 21.121999740600586,54.827999114990234z"></path></g></g></g><g mask="url(#__lottie_element_110_1)" style="display: block;"><g transform="matrix(1.0956462621688843,0.004247358534485102,-0.004247358534485102,1.0956462621688843,884.0757446289062,796.9769287109375)" opacity="1"><g opacity="1" transform="matrix(1,0,0,1,21.371999740600586,56.426998138427734)"><path fill="rgb(122,122,124)" fill-opacity="1" d=" M-21.121999740600586,56.176998138427734 C-21.121999740600586,56.176998138427734 21.121999740600586,56.176998138427734 21.121999740600586,56.176998138427734 C21.121999740600586,56.176998138427734 21.121999740600586,-56.176998138427734 21.121999740600586,-56.176998138427734 C21.121999740600586,-56.176998138427734 -21.121999740600586,-43.59299850463867 -21.121999740600586,-43.59299850463867 C-21.121999740600586,-43.59299850463867 -21.121999740600586,56.176998138427734 -21.121999740600586,56.176998138427734z"></path></g></g></g><g transform="matrix(1.0956462621688843,0.004247358534485102,-0.004247358534485102,1.0956462621688843,430.25592041015625,814.9137573242188)" opacity="1" style="display: block;"><g opacity="1" transform="matrix(1,0,0,1,74.85299682617188,49.236000061035156)"><path fill="rgb(247,219,172)" fill-opacity="1" d=" M74.60299682617188,48.986000061035156 C74.60299682617188,48.986000061035156 -74.60299682617188,48.986000061035156 -74.60299682617188,48.986000061035156 C-74.60299682617188,48.986000061035156 -53.92900085449219,-48.986000061035156 -53.92900085449219,-48.986000061035156 C-53.92900085449219,-48.986000061035156 49.435001373291016,-48.986000061035156 49.435001373291016,-48.986000061035156 C49.435001373291016,-48.986000061035156 74.60299682617188,48.986000061035156 74.60299682617188,48.986000061035156z"></path></g><g opacity="1" transform="matrix(1,0,0,1,47.88800048828125,50.1349983215332)"><path fill="rgb(146,146,146)" fill-opacity="1" d=" M8.09000015258789,48.986000061035156 C8.09000015258789,48.986000061035156 -19.774999618530273,48.986000061035156 -19.774999618530273,48.986000061035156 C-19.774999618530273,48.986000061035156 -8.09000015258789,-48.986000061035156 -8.09000015258789,-48.986000061035156 C-8.09000015258789,-48.986000061035156 19.774999618530273,-48.986000061035156 19.774999618530273,-48.986000061035156 C19.774999618530273,-48.986000061035156 8.09000015258789,48.986000061035156 8.09000015258789,48.986000061035156z"></path></g><g opacity="1" transform="matrix(1,0,0,1,102.71600341796875,50.1349983215332)"><path fill="rgb(146,146,146)" fill-opacity="1" d=" M-8.08899974822998,48.986000061035156 C-8.08899974822998,48.986000061035156 19.774999618530273,48.986000061035156 19.774999618530273,48.986000061035156 C19.774999618530273,48.986000061035156 8.09000015258789,-48.986000061035156 8.09000015258789,-48.986000061035156 C8.09000015258789,-48.986000061035156 -19.774999618530273,-48.986000061035156 -19.774999618530273,-48.986000061035156 C-19.774999618530273,-48.986000061035156 -8.08899974822998,48.986000061035156 -8.08899974822998,48.986000061035156z"></path></g></g><g transform="matrix(1.0956462621688843,0.004247358534485102,-0.004247358534485102,1.0956462621688843,385.4541320800781,546.4050903320312)" opacity="1" style="display: block;"><g opacity="1" transform="matrix(1,0,0,1,4.294000148773193,27.663999557495117)"><path fill="rgb(193,44,44)" fill-opacity="1" d=" M4.044000148773193,27.413999557495117 C4.044000148773193,27.413999557495117 -4.044000148773193,27.413999557495117 -4.044000148773193,27.413999557495117 C-4.044000148773193,27.413999557495117 -4.044000148773193,-27.413999557495117 -4.044000148773193,-27.413999557495117 C-4.044000148773193,-27.413999557495117 4.044000148773193,-27.413999557495117 4.044000148773193,-27.413999557495117 C4.044000148773193,-27.413999557495117 4.044000148773193,27.413999557495117 4.044000148773193,27.413999557495117z"></path></g></g><g transform="matrix(1.0956462621688843,0.004247358534485102,-0.004247358534485102,1.0956462621688843,613.5313720703125,547.2892456054688)" opacity="1" style="display: block;"><g opacity="1" transform="matrix(1,0,0,1,4.295000076293945,27.663999557495117)"><path fill="rgb(193,44,44)" fill-opacity="1" d=" M4.045000076293945,27.413999557495117 C4.045000076293945,27.413999557495117 -4.045000076293945,27.413999557495117 -4.045000076293945,27.413999557495117 C-4.045000076293945,27.413999557495117 -4.045000076293945,-27.413999557495117 -4.045000076293945,-27.413999557495117 C-4.045000076293945,-27.413999557495117 4.045000076293945,-27.413999557495117 4.045000076293945,-27.413999557495117 C4.045000076293945,-27.413999557495117 4.045000076293945,27.413999557495117 4.045000076293945,27.413999557495117z"></path></g></g><g transform="matrix(1.0956462621688843,0.004247358534485102,-0.004247358534485102,1.0956462621688843,214.39707946777344,545.224609375)" opacity="1" style="display: block;"><g opacity="1" transform="matrix(1,0,0,1,4.295000076293945,27.663999557495117)"><path fill="rgb(193,44,44)" fill-opacity="1" d=" M4.045000076293945,27.413999557495117 C4.045000076293945,27.413999557495117 -4.045000076293945,27.413999557495117 -4.045000076293945,27.413999557495117 C-4.045000076293945,27.413999557495117 -4.045000076293945,-27.413999557495117 -4.045000076293945,-27.413999557495117 C-4.045000076293945,-27.413999557495117 4.045000076293945,-27.413999557495117 4.045000076293945,-27.413999557495117 C4.045000076293945,-27.413999557495117 4.045000076293945,27.413999557495117 4.045000076293945,27.413999557495117z"></path></g></g><g transform="matrix(1.0956462621688843,0.004247358534485102,-0.004247358534485102,1.0956462621688843,784.5903930664062,547.952392578125)" opacity="1" style="display: block;"><g opacity="1" transform="matrix(1,0,0,1,4.294000148773193,27.663999557495117)"><path fill="rgb(193,44,44)" fill-opacity="1" d=" M4.044000148773193,27.413999557495117 C4.044000148773193,27.413999557495117 -4.044000148773193,27.413999557495117 -4.044000148773193,27.413999557495117 C-4.044000148773193,27.413999557495117 -4.044000148773193,-27.413999557495117 -4.044000148773193,-27.413999557495117 C-4.044000148773193,-27.413999557495117 4.044000148773193,-27.413999557495117 4.044000148773193,-27.413999557495117 C4.044000148773193,-27.413999557495117 4.044000148773193,27.413999557495117 4.044000148773193,27.413999557495117z"></path></g></g></g></svg>